<svg xmlns="http://www.w3.org/2000/svg" width="541.054" height="376.502" viewBox="0 0 541.054 376.502">
  <g id="forgot-password" transform="translate(-95.224 -270.998)">
    <g id="forgot-password-2" data-name="forgot-password" transform="translate(95.786 272)">
      <g id="Group">
        <path id="Rectangle" d="M16.58,0h94.962a16.58,16.58,0,0,1,16.58,16.58V158.056a16.58,16.58,0,0,1-16.58,16.58H16.58A16.58,16.58,0,0,1,0,158.056V16.58A16.58,16.58,0,0,1,16.58,0Z" transform="translate(375.556 38.38)" fill="none" stroke="#131313" stroke-width="2"/>
        <rect id="Rectangle-2" data-name="Rectangle" width="107.5" height="30.715" rx="8.32" transform="translate(386.524 56.372)" fill="none" stroke="#131313" stroke-miterlimit="10" stroke-width="1"/>
        <g id="Group-2" data-name="Group" transform="translate(423.16 62.958)">
          <circle id="Oval" cx="3.176" cy="3.176" r="3.176" transform="translate(13.281)" fill="#a49e9e"/>
          <path id="Path" d="M0,8.876a8.876,8.876,0,1,1,17.752,0Z" transform="translate(7.581 8.672)" fill="#a49e9e"/>
          <path id="Shape" d="M0,17.115A17.111,17.111,0,1,1,17.112,34.221,17.111,17.111,0,0,1,0,17.115Z" transform="translate(0 57.049)" fill="#a49e9e"/>
        </g>
        <path id="Path-2" data-name="Path" d="M40.694,1.321A31.644,31.644,0,1,0,59.493,16.6a31.65,31.65,0,0,0-18.8-15.275Z" transform="translate(212.348 71.73)" fill="#131313"/>
        <path id="Path-3" data-name="Path" d="M3.177,9.021a4.627,4.627,0,1,1,4.6-1,4.627,4.627,0,0,1-4.6,1Z" transform="translate(233.965 117.369)" fill="#fff"/>
        <path id="Path-4" data-name="Path" d="M13.413,12.558c-2.895,6.3-5.747,12.969-9.589,18.777C2.9,32.737.006,31.874,0,30.2A116.154,116.154,0,0,1,1.2,14.614c.467-3.77.1-10.23,3.152-13.131C7.06-1.112,12.142,0,14.569,2.5c2.919,3.045.246,6.922-1.157,10.063Z" transform="translate(239.492 81.385)" fill="#fff"/>
        <path id="Path-5" data-name="Path" d="M4.54,4.734a15.834,15.834,0,1,0,22.4-.192,15.834,15.834,0,0,0-22.4.192Z" transform="translate(160.103 138.395)" fill="#131313"/>
        <path id="Path-6" data-name="Path" d="M3.965,3.935A2.314,2.314,0,1,1,3.935.663a2.314,2.314,0,0,1,.03,3.272Z" transform="translate(180.539 158.714)" fill="#fff"/>
        <path id="Path-7" data-name="Path" d="M7.105,2.966a68.583,68.583,0,0,1,6.047,8.648c.4.737-.653,1.8-1.4,1.426a58.308,58.308,0,0,1-6.593-4.2C3.6,7.761.663,6.406.093,4.375-.422,2.577,1.292.575,2.934.1c2.02-.587,3.1,1.5,4.171,2.865Z" transform="translate(166.749 145.126)" fill="#fff"/>
        <g id="Group-3" data-name="Group" transform="translate(78.696)">
          <g id="Group-4" data-name="Group" transform="translate(318.579 100.799)">
            <path id="Path-8" data-name="Path" d="M0,.49H83.587" transform="translate(0 -0.49)" fill="none" stroke="#131313" stroke-miterlimit="10" stroke-width="1"/>
            <path id="Path-9" data-name="Path" d="M0,.49H83.587" transform="translate(0 7.739)" fill="none" stroke="#131313" stroke-miterlimit="10" stroke-width="1"/>
            <path id="Path-10" data-name="Path" d="M0,.49H83.587" transform="translate(0 60.719)" fill="none" stroke="#131313" stroke-miterlimit="10" stroke-width="1"/>
            <path id="Path-11" data-name="Path" d="M0,.49H44.757" transform="translate(19.412 68.504)" fill="none" stroke="#131313" stroke-miterlimit="10" stroke-width="1"/>
          </g>
          <g id="Group-5" data-name="Group">
            <path id="Path-12" data-name="Path" d="M0,0A162.341,162.341,0,0,1,20.725,34.9c38.608,86.218-9.649,129.975-9.649,129.975" transform="translate(424.989 151.208)" fill="none" stroke="#131313" stroke-miterlimit="10" stroke-width="2"/>
            <path id="Path-13" data-name="Path" d="M21.735,219.573s-57.289-64.984,14.15-97.162,85.583-36.648,80.429-70.121,35.36-67.555,99.074-45.033,64.99,64.966,60.471,97.779c-2.565,18.7,8.049,23.2,20.976,22.259" transform="translate(0 0)" fill="none" stroke="#131313" stroke-miterlimit="10" stroke-width="2"/>
          </g>
        </g>
        <path id="Shape-2" data-name="Shape" d="M195.535,188.676a39.4,39.4,0,0,0,14.576-5.964l.173-.12A38.8,38.8,0,0,0,222.1,169.563a3.61,3.61,0,0,0,.228-.461,24.61,24.61,0,0,0,2.721-10.291,3.223,3.223,0,0,0-.012-.425c.425-7.941-1.738-17.9-6.874-29.517v-.036c-4.747-10.692-12.046-22.774-22.174-35.959l-.06-.06c-8.84-11.5-16.853-20.725-23.625-27.965-1-1.061-2.008-2.145-3.033-3.188-.27-.287-.539-.557-.791-.827a182.825,182.825,0,0,0-18.3-16.871c-.462-.384-.713-.558-.713-.558C96,28,90.132,90.6,90.132,90.6h.042l38.956,30.266.132.1a.068.068,0,0,1,.042,0c.479.234,7.024,3.476,9.841,7.258A5.988,5.988,0,0,1,140.379,131a2.168,2.168,0,0,1-.15,1.067c-.731,1.6-3.548,2.565-6.634,3.165a71.592,71.592,0,0,1-9.751.947c-.078,0-1.019.1-2.607.252l-1.8.174c-.659.054-1.373.132-2.164.21l-1.618.156c-.252.018-.564.078-.851.078l-1.8.174a8.342,8.342,0,0,1-.947.1c-13.718,1.367-34.916,3.53-38.021,4.129a9.653,9.653,0,0,1-4.555-.042A5.04,5.04,0,0,1,67.4,140.34L40.706,120.808Q34.1,115.984,28.8,111.351a32.844,32.844,0,0,0-2.241-2.625C3.164,83.441,1.253,67.307,1.253,67.307A7.178,7.178,0,0,0,0,67.133c3.338-1.8,10.572-5.718,11.771-6.814,1.546-1.45,2.493-2.613,6.431,3.1s18.836,6.083,18.836,6.083c16.6-4.842,14.87-30.554,14.042-39.8s-5.79-11.831-5.79-11.831a28.352,28.352,0,0,0-1.6-10.692c3.919-1.606,65.7-25.615,131.695,24.2C243.576,82.865,251,188.676,251,188.676Z" transform="translate(274.6 185.313)" fill="#353642"/>
        <path id="Path-14" data-name="Path" d="M75.4,67.314a20.9,20.9,0,0,1-2.05,1.33L69.24,61.453c9.481-4.849,12.142-13.395,7.971-18.088a9.26,9.26,0,0,0-4.339-2.685c-4.2-1.271-7.1.6-9.074,3.11a21.4,21.4,0,0,0-3.476,7.276l-2-23.086-.156-1.8S53.8,24.02,41.982,25.949s-13.994,8.456-19.07,5.562-7.953-2.661-7.953-2.661c-1.444,5.3-5.31,5.3-5.31,5.3A11.609,11.609,0,0,1,6.97,33.5C1.486,28.461,0,19.716,0,19.716,5.753,19,6.2,13.466,5.538,8.929c3.188,1.894,7.683,2.026,13.994-2.026C37.637-4.676,56.2,1.593,62.731,2.558c2.913.426,6.1-.6,8.744-1.8a4.645,4.645,0,0,0,1.39,1.54A34.7,34.7,0,0,1,83.479,14.131C100.47,45.889,81.843,62.754,75.4,67.314Z" transform="translate(229.459 165.647)" fill="#131313"/>
        <path id="Path-15" data-name="Path" d="M188.367,188.693H195.2a11.034,11.034,0,0,0,11.022-11.022v-7.647a5.3,5.3,0,0,0-5.31-5.3H160.049a12.376,12.376,0,0,1-12.394,12.388H0a11.591,11.591,0,0,0,11.585,11.585H211.758a1.984,1.984,0,0,0,1.99-1.99V174.292a9.092,9.092,0,1,1,18.183,0V186.7a1.984,1.984,0,0,0,1.984,1.99H476.928s-7.42-105.834-75.61-157.31C335.326-18.432,273.542,5.577,269.622,7.183l-.192.072" transform="translate(48.668 185.307)" fill="none" stroke="#000" stroke-miterlimit="10" stroke-width="2"/>
        <path id="Path-16" data-name="Path" d="M6.736,3.38A3.368,3.368,0,1,1,3.362,0a3.29,3.29,0,0,1,.773.1,1.714,1.714,0,0,0-1.2,1.642A1.744,1.744,0,0,0,4.675,3.494a1.8,1.8,0,0,0,1.738-1.5,3.35,3.35,0,0,1,.324,1.39Z" transform="translate(243.226 215.012)"/>
        <path id="Path-17" data-name="Path" d="M6.76,3.374A3.38,3.38,0,1,1,3.38,0,2.026,2.026,0,0,1,3.86.054a1.72,1.72,0,0,0-1,1.564,1.74,1.74,0,0,0,3.476.156,3.272,3.272,0,0,1,.426,1.6Z" transform="translate(266.581 215.959)"/>
        <path id="Path-18" data-name="Path" d="M75.185,0c-.39,2.625.1,4.926,2.026,6.293A34.7,34.7,0,0,1,87.825,18.123C108.094,55.995,77.69,72.662,77.69,72.662L73.579,65.47C85.415,59.429,86.626,47.6,77.211,44.7s-12.55,10.386-12.55,10.386L62.5,30.182s-4.363-2.164-16.182-.234S32.327,38.4,27.251,35.51,19.3,32.849,19.3,32.849c-1.444,5.3-5.31,5.3-5.31,5.3C2.661,36.708,0,21.036,0,21.036c5.747-.719,6.191-6.257,5.538-10.788,3.182,1.894,7.683,2.032,13.994-2.026C37.637-3.356,56.2,2.919,62.725,3.884,67.232,4.537,72.4,1.78,75.185,0Z" transform="translate(225.12 161.66)" fill="none" stroke="#000" stroke-linecap="round" stroke-linejoin="round" stroke-miterlimit="10" stroke-width="1"/>
        <path id="Path-19" data-name="Path" d="M14.45,1.8,18.927,0l3.356,9.056-.527,16.433-4.537.821L0,25.567S1.2,15.546,4.86,10.782A52.581,52.581,0,0,1,14.45,1.8Z" transform="translate(296.308 347.666)" fill="#4f4a4a"/>
        <g id="Group-6" data-name="Group" transform="translate(232.36 197.485)">
          <g id="Group-7" data-name="Group" transform="translate(0 0)">
            <path id="Path-20" data-name="Path" d="M0,7.434S4.585-.794,14.234.063" transform="translate(0 0.431)" fill="none" stroke="#000" stroke-miterlimit="10" stroke-width="3"/>
            <path id="Path-21" data-name="Path" d="M0,.494S11.028-1.981,14.887,4.15" transform="translate(33.13 0)" fill="none" stroke="#000" stroke-miterlimit="10" stroke-width="3"/>
            <path id="Path-22" data-name="Path" d="M11.417,1.127S4.825-2.691,0,3.728" transform="translate(38.8 36.621)" fill="none" stroke="#000" stroke-miterlimit="10" stroke-width="3"/>
            <path id="Path-23" data-name="Path" d="M.21,0s-4.693,55.2,30.3,54.185c5.993-.174,11.95-4.111,17.644-10.446" transform="translate(8.348 1.812)" fill="none" stroke="#000" stroke-miterlimit="10" stroke-width="3"/>
          </g>
          <path id="Path-24" data-name="Path" d="M13.946,47.406,0,42.384s3.458,11.051,20.587,11.9S43.463,15.816,30.877,0" transform="translate(56.504 3.167)" fill="none" stroke="#000" stroke-linejoin="round" stroke-miterlimit="10" stroke-width="1"/>
          <g id="Group-8" data-name="Group" transform="translate(62.199 6.177)">
            <path id="Path-25" data-name="Path" d="M7.123,0s-12.784,10.374-4.1,15.2" transform="translate(55.654 155.138)" fill="none" stroke="#000" stroke-miterlimit="10" stroke-width="3"/>
            <path id="Path-26" data-name="Path" d="M10.854,0S-11.321,12.55,7.72,24.854" transform="translate(42.034 145.483)" fill="none" stroke="#000" stroke-miterlimit="10" stroke-width="3"/>
            <path id="Path-27" data-name="Path" d="M15.338,0S-14.095,13.784,8.584,34.5" transform="translate(30.071 135.834)" fill="none" stroke="#000" stroke-miterlimit="10" stroke-width="3"/>
            <path id="Path-28" data-name="Path" d="M169.181,170.337s35.708,0,36.187-34.5S136.128,14.693,91.011,2.641,43.959,23.617,43.959,24.972s-2.649,15.582,8.93,30.763c8.942,11.735,48.437,41.03,65.961,53.759a3.92,3.92,0,0,1-1.936,7.072l-77.5,7.444h-.048c-.731.132-28.084,5.178-36.415,13.748,0,0-4.669,3.458-2.253,8.768s9.835,3.56,10.039,3.362" transform="translate(0 0)" fill="none" stroke="#000" stroke-miterlimit="10" stroke-width="3"/>
          </g>
        </g>
        <circle id="Oval-2" data-name="Oval" cx="9.649" cy="9.649" r="9.649" transform="translate(260.318 206.304)" fill="#fff" opacity="0.26"/>
        <circle id="Oval-3" data-name="Oval" cx="9.649" cy="9.649" r="9.649" transform="translate(235.83 205.351)" fill="#fff" opacity="0.26"/>
        <g id="Group-9" data-name="Group" transform="translate(153.96 205.351)">
          <g id="Group-10" data-name="Group" transform="translate(0 0.953)">
            <path id="Path-29" data-name="Path" d="M42.81,1.046a25.94,25.94,0,0,0-14.647.036,21.306,21.306,0,0,0-7.569,4.309c-.479.42-.941.845-1.384,1.271a35.649,35.649,0,0,0-2.7,2.967.719.719,0,0,1-.443.258C13.934,10.18-.072,12.4,0,19.475c.066,6.359,7.03,7.4,9.427,7.569a.719.719,0,0,0,.785-.707A27.575,27.575,0,0,1,16.332,9.826" transform="translate(132.117 140.591)" fill="none" stroke="#000" stroke-miterlimit="10" stroke-width="2"/>
            <path id="Path-30" data-name="Path" d="M19.9,0C21.54,13.239,11.249,19.226,0,20.113" transform="translate(28.836 91.684)" fill="none" stroke="#000" stroke-miterlimit="10" stroke-width="1"/>
            <path id="Path-31" data-name="Path" d="M12.486,60.97A23.793,23.793,0,0,1,.248,36.614c1.8-12.736,12.586-22.5,23.146-28.7C45.569-5.1,95.54,4.316,103.937,6.234c6.437,1.474,11.819-3.56,14-5.993A.725.725,0,0,1,119.2.63C123.8,27.6,177.33,64.206,189.712,72.4" transform="translate(0 48.065)" fill="none" stroke="#000" stroke-miterlimit="10" stroke-width="3"/>
            <path id="Path-32" data-name="Path" d="M31.332,20.269l-17.722,11a8.9,8.9,0,1,1-9.266-15.2L31.314,0" transform="translate(30.904 62.257)" fill="none" stroke="#000" stroke-miterlimit="10" stroke-width="3"/>
            <circle id="Oval-4" data-name="Oval" cx="9.649" cy="9.649" r="9.649" transform="translate(106.358)" fill="none" stroke="#000" stroke-miterlimit="10" stroke-width="1"/>
          </g>
          <circle id="Oval-5" data-name="Oval" cx="8.205" cy="8.205" r="8.205" transform="translate(83.314 1.444)" fill="none" stroke="#fff" stroke-miterlimit="10" stroke-width="4"/>
          <g id="Group-11" data-name="Group" transform="translate(11.552)">
            <circle id="Oval-6" data-name="Oval" cx="9.649" cy="9.649" r="9.649" transform="translate(70.317)" fill="none" stroke="#000" stroke-miterlimit="10" stroke-width="3"/>
            <path id="Path-33" data-name="Path" d="M5.238.49H0" transform="translate(89.616 9.159)" fill="none" stroke="#000" stroke-miterlimit="10" stroke-width="3"/>
            <path id="Path-34" data-name="Path" d="M4.928,13.635H1.476a1.474,1.474,0,0,1-1.45-1.75L2.309,0" transform="translate(89.925 9.649)" fill="none" stroke="#000" stroke-miterlimit="10" stroke-width="3"/>
            <path id="Path-35" data-name="Path" d="M25.59,0S13.286,2.655,8.947,21.234C6.31,32.513,2.69,46.9.257,56.468a8.313,8.313,0,1,0,16.17,3.86l5.148-23.1" transform="translate(0 56.216)" fill="none" stroke="#000" stroke-miterlimit="10" stroke-width="3"/>
            <path id="Path-36" data-name="Path" d="M0,7.515s12.915-7.719,38.357,0S93.045,20.473,102.694,0" transform="translate(36.839 92.128)" fill="none" stroke="#000" stroke-miterlimit="10" stroke-width="3"/>
            <path id="Path-37" data-name="Path" d="M0,0S8.99,10.26,3.524,26.023" transform="translate(148.733 142.626)" fill="none" stroke="#000" stroke-miterlimit="10" stroke-width="3"/>
          </g>
        </g>
        <path id="Path-38" data-name="Path" d="M17.18,0H159.219a20.377,20.377,0,0,1,19.832,15.582l22.612,93.65a17.183,17.183,0,0,1-16.7,21.216H43.286a20.377,20.377,0,0,1-19.814-15.54L.495,21.276A17.183,17.183,0,0,1,17.18,0Z" transform="translate(0 220.388)" fill="#878484"/>
        <path id="Path-39" data-name="Path" d="M16.125,0H149.39A19.178,19.178,0,0,1,168,14.641L189.227,102.5a16.116,16.116,0,0,1-15.666,19.9H40.619A19.178,19.178,0,0,1,22.04,107.818L.465,19.957A16.116,16.116,0,0,1,16.125,0Z" transform="translate(6.227 224.415)" fill="#212020"/>
        <path id="Path-40" data-name="Path" d="M17.18,0H159.219a20.377,20.377,0,0,1,19.832,15.582l22.612,93.65a17.183,17.183,0,0,1-16.7,21.216H43.286a20.377,20.377,0,0,1-19.814-15.54L.495,21.276A17.183,17.183,0,0,1,17.18,0Z" transform="translate(0 220.388)" fill="none" stroke="#000" stroke-miterlimit="10" stroke-width="1"/>
      </g>
    </g>
    <g id="Group_357" data-name="Group 357" transform="translate(129.648 531.432)">
      <path id="Path_131" data-name="Path 131" d="M335.678,349.38a17.9,17.9,0,1,0,17.9,17.9A17.9,17.9,0,0,0,335.678,349.38Zm3.21,18.329v8.475h-6.327v-8.475a5.242,5.242,0,1,1,6.327,0Z" transform="translate(-312.666 -344.266)" opacity="0.05"/>
      <path id="Path_132" data-name="Path 132" d="M318.792,327.38A23.012,23.012,0,1,0,341.8,350.392,23.012,23.012,0,0,0,318.792,327.38Zm4.126,23.566V361.84h-8.136V350.946a6.741,6.741,0,1,1,8.136,0Z" transform="translate(-295.78 -327.38)" fill="#878484"/>
      <rect id="Rectangle_141" data-name="Rectangle 141" width="74.383" height="7.903" transform="translate(55.555 19.993)" fill="#fff"/>
      <path id="Path_133" data-name="Path 133" d="M555.151,424.507H553.8l1.2-1.195a.118.118,0,0,0,0-.165.116.116,0,0,0-.165,0l-1.2,1.2V423a.116.116,0,0,0-.116-.116.119.119,0,0,0-.116.116v1.348l-1.195-1.2a.116.116,0,0,0-.165,0,.119.119,0,0,0,0,.165l1.2,1.195H551.9a.118.118,0,0,0-.116.116.116.116,0,0,0,.116.116h1.348l-1.2,1.2a.119.119,0,0,0,0,.165.121.121,0,0,0,.165,0l1.195-1.2v1.346a.116.116,0,0,0,.232,0V424.9l1.2,1.2a.121.121,0,0,0,.165,0,.118.118,0,0,0,0-.165l-1.2-1.2h1.346a.113.113,0,1,0,0-.225Z" transform="translate(-492.274 -400.681)" fill="#131313"/>
      <path id="Path_134" data-name="Path 134" d="M576.151,424.507H574.8l1.2-1.195a.119.119,0,0,0,0-.165.116.116,0,0,0-.165,0l-1.2,1.2V423a.116.116,0,0,0-.116-.116.119.119,0,0,0-.116.116v1.348l-1.195-1.2a.116.116,0,0,0-.165,0,.118.118,0,0,0,0,.165l1.2,1.195H572.9a.118.118,0,0,0-.116.116.116.116,0,0,0,.116.116h1.348l-1.2,1.2a.118.118,0,0,0,0,.165.121.121,0,0,0,.165,0l1.195-1.2v1.346a.116.116,0,0,0,.232,0V424.9l1.2,1.2a.121.121,0,0,0,.165,0,.118.118,0,0,0,0-.165l-1.2-1.2h1.346a.113.113,0,1,0,0-.225Z" transform="translate(-508.392 -400.681)" fill="#131313"/>
      <path id="Path_135" data-name="Path 135" d="M597.15,424.507H595.8l1.2-1.195a.118.118,0,0,0,0-.165.116.116,0,0,0-.165,0l-1.2,1.2V423a.116.116,0,0,0-.116-.116.119.119,0,0,0-.116.116v1.348l-1.195-1.2a.116.116,0,0,0-.165,0,.119.119,0,0,0,0,.165l1.2,1.195H593.9a.119.119,0,0,0-.116.116.116.116,0,0,0,.116.116h1.348l-1.2,1.2a.119.119,0,0,0,0,.165.121.121,0,0,0,.165,0l1.195-1.2v1.346a.116.116,0,0,0,.232,0V424.9l1.2,1.2a.121.121,0,0,0,.165,0,.118.118,0,0,0,0-.165l-1.2-1.2h1.346a.113.113,0,1,0,0-.225Z" transform="translate(-524.511 -400.681)" fill="#131313"/>
      <path id="Path_136" data-name="Path 136" d="M618.15,424.507H616.8l1.2-1.195a.119.119,0,0,0,0-.165.116.116,0,0,0-.165,0l-1.2,1.2V423a.116.116,0,0,0-.116-.116.119.119,0,0,0-.116.116v1.348l-1.195-1.2a.116.116,0,0,0-.165,0,.118.118,0,0,0,0,.165l1.2,1.195H614.9a.119.119,0,0,0-.116.116.116.116,0,0,0,.116.116h1.348l-1.2,1.2a.118.118,0,0,0,0,.165.121.121,0,0,0,.165,0l1.195-1.2v1.346a.116.116,0,0,0,.233,0V424.9l1.2,1.2a.121.121,0,0,0,.165,0,.119.119,0,0,0,0-.165l-1.2-1.2h1.346a.113.113,0,1,0,0-.225Z" transform="translate(-540.629 -400.681)" fill="#131313"/>
      <path id="Path_137" data-name="Path 137" d="M639.15,424.507H637.8l1.2-1.195a.118.118,0,0,0,0-.165.116.116,0,0,0-.165,0l-1.2,1.2V423a.116.116,0,0,0-.116-.116.119.119,0,0,0-.116.116v1.348l-1.195-1.2a.116.116,0,0,0-.165,0,.119.119,0,0,0,0,.165l1.2,1.195H635.9a.118.118,0,0,0-.116.116.116.116,0,0,0,.116.116h1.348l-1.2,1.2a.119.119,0,0,0,0,.165.121.121,0,0,0,.165,0l1.195-1.2v1.346a.116.116,0,0,0,.232,0V424.9l1.2,1.2a.121.121,0,0,0,.165,0,.118.118,0,0,0,0-.165l-1.2-1.2h1.346a.113.113,0,1,0,0-.225Z" transform="translate(-556.748 -400.681)" fill="#131313"/>
      <path id="Path_138" data-name="Path 138" d="M660.151,424.507H658.8l1.2-1.195a.119.119,0,0,0,0-.165.116.116,0,0,0-.165,0l-1.2,1.2V423a.116.116,0,0,0-.116-.116.119.119,0,0,0-.116.116v1.348l-1.195-1.2a.116.116,0,0,0-.165,0,.118.118,0,0,0,0,.165l1.2,1.195H656.9a.119.119,0,0,0-.116.116.116.116,0,0,0,.116.116h1.348l-1.2,1.2a.118.118,0,0,0,0,.165.121.121,0,0,0,.165,0l1.195-1.2v1.346a.116.116,0,0,0,.233,0V424.9l1.2,1.2a.121.121,0,0,0,.165,0,.119.119,0,0,0,0-.165l-1.2-1.2h1.346a.113.113,0,1,0,0-.225Z" transform="translate(-572.866 -400.681)" fill="#131313"/>
      <path id="Path_139" data-name="Path 139" d="M681.151,424.507H679.8l1.2-1.195a.119.119,0,0,0,0-.165.116.116,0,0,0-.165,0l-1.2,1.2V423a.116.116,0,0,0-.116-.116.119.119,0,0,0-.116.116v1.348l-1.195-1.2a.116.116,0,0,0-.165,0,.118.118,0,0,0,0,.165l1.2,1.195H677.9a.119.119,0,0,0-.116.116.116.116,0,0,0,.116.116h1.348l-1.2,1.2a.118.118,0,0,0,0,.165.121.121,0,0,0,.165,0l1.195-1.2v1.346a.116.116,0,0,0,.232,0V424.9l1.2,1.2a.121.121,0,0,0,.165,0,.118.118,0,0,0,0-.165l-1.2-1.2h1.346a.113.113,0,1,0,0-.225Z" transform="translate(-588.985 -400.681)" fill="#131313"/>
      <path id="Path_140" data-name="Path 140" d="M702.151,424.507H700.8l1.2-1.195a.119.119,0,0,0,0-.165.116.116,0,0,0-.165,0l-1.2,1.2V423a.116.116,0,0,0-.116-.116.119.119,0,0,0-.116.116v1.348l-1.195-1.2a.116.116,0,0,0-.165,0,.118.118,0,0,0,0,.165l1.2,1.195H698.9a.118.118,0,0,0-.116.116.116.116,0,0,0,.116.116h1.348l-1.2,1.2a.118.118,0,0,0,0,.165.121.121,0,0,0,.165,0l1.195-1.2v1.346a.116.116,0,0,0,.232,0V424.9l1.2,1.2a.121.121,0,0,0,.165,0,.118.118,0,0,0,0-.165l-1.2-1.2h1.346a.113.113,0,1,0,0-.225Z" transform="translate(-605.104 -400.681)" fill="#131313"/>
      <path id="Path_141" data-name="Path 141" d="M723.151,424.507H721.8l1.2-1.195a.119.119,0,0,0,0-.165.116.116,0,0,0-.165,0l-1.2,1.2V423a.116.116,0,0,0-.116-.116.119.119,0,0,0-.116.116v1.348l-1.195-1.2a.116.116,0,0,0-.165,0,.119.119,0,0,0,0,.165l1.2,1.195H719.9a.118.118,0,0,0-.116.116.116.116,0,0,0,.116.116h1.348l-1.2,1.2a.119.119,0,0,0,0,.165.121.121,0,0,0,.165,0l1.195-1.2v1.346a.116.116,0,0,0,.232,0V424.9l1.2,1.2a.121.121,0,0,0,.165,0,.119.119,0,0,0,0-.165l-1.2-1.2h1.346a.113.113,0,1,0,0-.225Z" transform="translate(-621.222 -400.681)" fill="#131313"/>
      <path id="Path_142" data-name="Path 142" d="M744.15,424.507H742.8l1.2-1.195a.119.119,0,0,0,0-.165.116.116,0,0,0-.165,0l-1.2,1.2V423a.116.116,0,0,0-.116-.116.119.119,0,0,0-.116.116v1.348l-1.195-1.2a.116.116,0,0,0-.165,0,.119.119,0,0,0,0,.165l1.2,1.195H740.9a.118.118,0,0,0-.116.116.116.116,0,0,0,.116.116h1.348l-1.2,1.2a.119.119,0,0,0,0,.165.121.121,0,0,0,.165,0l1.195-1.2v1.346a.116.116,0,0,0,.233,0V424.9l1.2,1.2a.121.121,0,0,0,.165,0,.119.119,0,0,0,0-.165l-1.2-1.2h1.346a.113.113,0,1,0,0-.225Z" transform="translate(-637.341 -400.681)" fill="#131313"/>
      <path id="Path_143" data-name="Path 143" d="M765.15,424.507H763.8l1.2-1.195a.119.119,0,0,0,0-.165.116.116,0,0,0-.165,0l-1.2,1.2V423a.116.116,0,0,0-.116-.116.119.119,0,0,0-.116.116v1.348l-1.195-1.2a.116.116,0,0,0-.165,0,.118.118,0,0,0,0,.165l1.2,1.195H761.9a.119.119,0,0,0-.116.116.116.116,0,0,0,.116.116h1.348l-1.2,1.2a.118.118,0,0,0,0,.165.121.121,0,0,0,.165,0l1.195-1.2v1.346a.116.116,0,0,0,.232,0V424.9l1.2,1.2a.121.121,0,0,0,.165,0,.119.119,0,0,0,0-.165l-1.2-1.2h1.346a.113.113,0,1,0,0-.225Z" transform="translate(-653.459 -400.681)" fill="#131313"/>
    </g>
  </g>
</svg>
