<svg xmlns="http://www.w3.org/2000/svg" width="546.012" height="473.025" viewBox="0 0 546.012 473.025">
  <g id="portal-login" transform="translate(1.012 1)">
    <g id="Group">
      <path id="Path" d="M49.843,11.6c-1.7,2.84-5.244,4.042-8.3,4.655a105.634,105.634,0,0,1-11.881,1.365l-2.3.564a3.461,3.461,0,0,0-2.277,4.339A69.583,69.583,0,0,0,30.92,36.614l-3.633,3.641c-1.029-1.4-1.078-3.842-2.459-3.6-1.326-1.329-2.9-1.978-4.53-.2-3.185,3.49-2.67,10.742,2.01,12.744L21.261,54.42a8.04,8.04,0,0,1-7.872,6.487l.805-6.184c-5.45,2.761-11.633-3.21-11.2-8.132a9.145,9.145,0,0,0-2.973-8.15c-.163-.164.836-.771.684-.935C0,35.376-.1,32.888.6,31.48c1.211-2.512,4.778-3.981,3.137-6.724A13.143,13.143,0,0,1,2.18,20.9,12.862,12.862,0,0,1,4.766,10.579c2.422-2.913,6.358-2.13,9.574-3.162C18.257,6.2,20.068,2,24.168.7a10.857,10.857,0,0,1,5.971.115c1.726.4,3.433.85,5.129,1.384s3.185.977,4.844.479C42.3,2.071,43.994.02,46.385,0A5.333,5.333,0,0,1,49.7,1.063c1.768,3.186,1.78,7.81.139,10.535Z" transform="translate(46.968 113.563)" fill="#131313"/>
      <g id="Group-2" data-name="Group" transform="translate(0 66.738)">
        <path id="Path-2" data-name="Path" d="M21.867,140.595S-44.06,67.721,53.029,31.357A71.24,71.24,0,0,1,70.493,27.34c15.5-1.651,49.752-7.519,53.7-27.34" transform="translate(0 0)" fill="none" stroke="#666" stroke-miterlimit="10" stroke-width="2"/>
        <path id="Path-3" data-name="Path" d="M.49.494V.475" transform="translate(298.128 38.085)" fill="none" stroke="#666" stroke-miterlimit="10" stroke-width="2"/>
        <g id="Group-3" data-name="Group" transform="translate(57.431 61.501)">
          <path id="Path-4" data-name="Path" d="M.49.494V.475" transform="translate(67.714 107.797)" fill="none" stroke="#131313" stroke-miterlimit="10" stroke-width="3"/>
          <path id="Path-5" data-name="Path" d="M13.728,4.394a17.361,17.361,0,0,0-2.289-3.107c-1.326-1.329-2.9-1.978-4.53-.2-3.185,3.49-2.67,10.742,2.01,12.744L7.872,19.056A8.04,8.04,0,0,1,0,25.543" transform="translate(2.931 20.7)" fill="none" stroke="#131313" stroke-linecap="round" stroke-linejoin="round" stroke-miterlimit="10" stroke-width="3"/>
          <path id="Path-6" data-name="Path" d="M0,29.318C.266,27.291.926,21.969,1.562,16.9c.606-4.7,1.144-9.231,1.356-10.723L3.73,0" transform="translate(0 40.048)" fill="none" stroke="#131313" stroke-linecap="round" stroke-linejoin="round" stroke-miterlimit="10" stroke-width="3"/>
          <g id="Group-4" data-name="Group" transform="translate(28.158 0)">
            <path id="Path-7" data-name="Path" d="M9.229,0S1.5.382,0,6.8" transform="translate(0 8.551)" fill="none" stroke="#131313" stroke-miterlimit="10" stroke-width="3"/>
            <path id="Path-8" data-name="Path" d="M4.614,25.5c2.107-.055,4.844-.364,5.838-2.506L5.123,17.1a8.548,8.548,0,0,1-2.18-5.231C2.731,8.612,3.113,3.441,0,0" transform="translate(7.424)" fill="none" stroke="#131313" stroke-miterlimit="10" stroke-width="3"/>
          </g>
        </g>
      </g>
      <path id="Oval" d="M2.362,0A2.195,2.195,0,0,1,4.718,2,2.21,2.21,0,0,1,2.356,4,2.195,2.195,0,0,1,0,2,2.21,2.21,0,0,1,2.362,0Z" transform="matrix(0.671, -0.742, 0.742, 0.671, 88.522, 144.647)"/>
      <path id="Path-9" data-name="Path" d="M4.015,19.5,0,0" transform="translate(88.533 172.941)" fill="none" stroke="#000" stroke-miterlimit="10" stroke-width="3"/>
      <path id="Path-10" data-name="Path" d="M153.891,90.74l-25.875,21.2c31.132,47.579,7.569,56.312,7.569,56.312a125.694,125.694,0,0,1-13.825,1.863c-22.5,1.626-45.586-4.193-64.134-17.229-37.544-26.4-70.244-79.233-52.8-125.235A73.939,73.939,0,0,1,10.18,16.416,33.253,33.253,0,0,1,17,8.114,32.644,32.644,0,0,1,52.121,2.962,32.268,32.268,0,0,1,58.3,6.676c9.8,7.519,18.718,18.206,26.4,29.421a274.944,274.944,0,0,1,18.379,31.691c1.5,2.992,2.852,5.82,4.051,8.411,10.87-4.406,19.983-11.889,28.461-19.972C125.345,75.4,153.891,90.74,153.891,90.74Z" transform="translate(40.432 189.49)" fill="#353642"/>
      <g id="Group-5" data-name="Group" transform="translate(99.717 215.131)">
        <path id="Path-11" data-name="Path" d="M1.526,0C1.029.382.515.783,0,1.165" transform="translate(74.974 80.611)" fill="none" stroke="#000" stroke-miterlimit="10" stroke-width="3"/>
        <path id="Path-12" data-name="Path" d="M0,0Q10.294,19.754,20.589,39.58C25.766,49.557,34.517,55.717,46.84,50.99,60.247,45.843,71.062,36.006,81.066,25.98s20.141-19.614,34.583-22.2c18.669-3.344,36.333,6.852,49.05,19.736a6.166,6.166,0,0,1-8.351,9.061c-6.025-5.152-15.829-12.6-22.648-12.7" transform="translate(0 0)" fill="none" stroke="#000" stroke-miterlimit="10" stroke-width="3"/>
        <path id="Path-13" data-name="Path" d="M0,0C2.1,1.4,5,2.955,7.424,2.955" transform="translate(115.098 37.553)" fill="none" stroke="#000" stroke-miterlimit="10" stroke-width="3"/>
        <path id="Path-14" data-name="Path" d="M28.11,0c4.469,2.215,6.1,8.7,2.943,12.568a44.89,44.89,0,0,1-14.7,11.919C10.125,27.6,6.128,25.7,0,21.9" transform="translate(113.838 22.43)" fill="none" stroke="#000" stroke-miterlimit="10" stroke-width="3"/>
        <path id="Path-15" data-name="Path" d="M0,0S8.853,2.2,8.617,10.808a4.111,4.111,0,0,1-.194,1.08" transform="translate(131.605 28.238)" fill="none" stroke="#000" stroke-miterlimit="10" stroke-width="3"/>
        <path id="Path-16" data-name="Path" d="M0,0S11.875,7.689,6.225,12.526" transform="translate(125.35 33.663)" fill="none" stroke="#000" stroke-miterlimit="10" stroke-width="3"/>
      </g>
      <path id="Path-17" data-name="Path" d="M59.641,23.033C45.653,61.564,6.492,62.65,2.01,62.65,3.888,58.687,4.4,51.726.285,39.528A23.85,23.85,0,0,0,0,12.219c.054-.049.085-.115.133-.164a32.906,32.906,0,0,0,5.807-.88C12.7,9.56,26.021,6.016,36.594,1.028,43.763-2.365,52.126,3.073,51.515,11a.975.975,0,0,1-.036.316,8.706,8.706,0,0,1,8.163,11.713Z" transform="translate(394.816 255.898)" fill="#999"/>
      <path id="Path-18" data-name="Path" d="M262.03,168.468c-4.711,8.1-12.044,15-19.13,21.022-24.943,21.156-57.528,31.9-90.228,32.316-32.809-.419-65.515-11.2-90.573-32.164C-17.077,123.384-2.767,45.151,10.04,8.927a15.488,15.488,0,0,1,1.817-3.538A12.574,12.574,0,0,1,20.637,0c6.722.929,12.826,6.518,11.748,15.172,0,.334-.133.8-.164,1.129-17.428,46,15.284,98.836,52.8,125.235,17.022,11.974,37.865,17.86,58.575,17.478h.236q2.664-.055,5.323-.249c11.633-.85,22.938-3.641,34.135-7.021,13.141-3.939,26.136-8.715,39.264-12.059,4.614-1.177,9.241-2.312,13.891-3.374a30.656,30.656,0,0,1,8.163-.564c16.126,1.092,27.456,15.463,17.416,32.723Z" transform="translate(12.923 200.833)" fill="#d7e8f0"/>
      <path id="Path-19" data-name="Path" d="M266.015,168.468c-4.711,8.1-12.051,15-19.136,21.022-25.936,22.017-60.156,32.771-94.224,32.316-32.809-.419-65.515-11.2-90.573-32.164C-17.076,123.384-2.766,45.151,10.041,8.927a15.488,15.488,0,0,1,1.817-3.538A12.574,12.574,0,0,1,20.638,0C27.36.929,33.464,6.518,32.386,15.172c0,.334-.133.8-.163,1.129-17.428,46,15.284,98.836,52.8,125.235,17.022,11.974,37.865,17.86,58.575,17.478h.236q4.681.073,9.307-.249c11.633-.85,22.932-3.641,34.135-7.021,13.141-3.939,26.136-8.715,39.264-12.059,4.608-1.177,9.241-2.312,13.885-3.374a30.987,30.987,0,0,1,4.184-.564c18.13-1.22,32.252,14.067,21.4,32.723Z" transform="translate(12.922 200.833)" fill="#d8d8d8"/>
      <path id="Path-20" data-name="Path" d="M101.024.212l7.969,11.3s48.22,1.881,74.61,24.081A6.854,6.854,0,0,1,179.2,47.682a6.731,6.731,0,0,1-4.366-1.59c-6.231-5.243-30.036-21.726-83.881-22.224C38.483,23.377,18.36,39.647,12.8,45.576a6.745,6.745,0,0,1-4.929,2.106H6.83a6.854,6.854,0,0,1-4.142-12.3C24.719,18.218,74.1,12.744,74.1,12.744L82.531,0" transform="translate(70.021 422.318)" fill="#353642"/>
      <path id="Path-21" data-name="Path" d="M45.811,0S60.581,14.061,55.972,57.653a19.483,19.483,0,0,1-3.149,8.7l-1.6,2.427a19.634,19.634,0,0,1-11.172,8.059C30.4,79.482,12.9,85.6,2.09,97.191A7.653,7.653,0,0,0,7.619,110.1a7.565,7.565,0,0,0,6.316-3.374c4.4-6.639,17.731-20.737,49.88-20.44,36.261.334,50.867,14.783,55.548,21.01a6.959,6.959,0,1,0,10.646-8.933c-14.14-15.4-31.434-21.137-40.978-23.268A19.543,19.543,0,0,1,73.588,56.737c-.533-13.515-.811-46.323,8.326-56.725" transform="translate(338.638 359.87)" fill="#353642"/>
      <g id="Group-6" data-name="Group" transform="translate(9.082 178.966)">
        <path id="Path-22" data-name="Path" d="M0,57.623C25.972,44.988,54.161,36.7,81.877,28.893c27.892-7.853,56.056-14.7,84.305-21.143C177.47,5.183,188.86,2.895,200.093,0" transform="translate(187.258 116.005)" fill="none" stroke="#000" stroke-miterlimit="10" stroke-width="3"/>
        <path id="Path-23" data-name="Path" d="M.465.49H.5" transform="translate(211.16 76.008)" fill="none" stroke="#000" stroke-miterlimit="10" stroke-width="2"/>
        <path id="Path-24" data-name="Path" d="M160.364,51.014c-1.629,1.614-7.442,10.238-8.9,11.786a299.427,299.427,0,0,1-25.506,24.348c-2.259,1.881-4.651,3.823-7.17,5.79-.5.382-1.011.783-1.526,1.165-17.077,12.987-39.361,25.489-59.95,17.478-.545-.2-1.078-.431-1.6-.668C24.126,96.742,2.054,61.252.128,26.994c-.067-1.117-.1-2.227-.115-3.326C-.157,14.3,1.224,4.94,10.186,0" transform="translate(48.349 23.839)" fill="none" stroke="#000" stroke-miterlimit="10" stroke-width="3"/>
        <path id="Path-25" data-name="Path" d="M36.221,16.337l.127-1c2.01-16.155-20.88-21.6-26.311-6.257C-2.765,45.3-17.08,123.517,62.114,189.788c51.115,42.791,133.87,43.088,184.791-.14,7.085-6.014,14.418-12.926,19.135-21.028,11.936-20.488-6.292-36.916-26.85-31.873" transform="translate(0 21.709)" fill="none" stroke="#000" stroke-miterlimit="10" stroke-width="2"/>
        <path id="Path-26" data-name="Path" d="M101.024.212l7.969,11.3s48.22,1.881,74.61,24.081A6.854,6.854,0,0,1,179.2,47.682a6.731,6.731,0,0,1-4.366-1.59c-6.231-5.243-30.036-21.726-83.881-22.224C38.483,23.377,18.36,39.647,12.8,45.576a6.745,6.745,0,0,1-4.929,2.106H6.83a6.854,6.854,0,0,1-4.142-12.3C24.719,18.218,74.1,12.744,74.1,12.744L82.531,0" transform="translate(60.94 243.352)" fill="none" stroke="#000" stroke-miterlimit="10" stroke-width="2"/>
        <path id="Path-27" data-name="Path" d="M0,53.253C20.213,47.791,28.54,19.214,31.895,0" transform="translate(135.041 24.088)" fill="none" stroke="#000" stroke-miterlimit="10" stroke-width="3"/>
        <path id="Path-28" data-name="Path" d="M0,46.64A33.12,33.12,0,0,0,25.936,27.268a7.3,7.3,0,0,0-.182-6.554c-2.2-4.09-5.492-8.83-4.711-13.734A8.518,8.518,0,0,1,27.7.3,9.3,9.3,0,0,1,32.73.39a6.878,6.878,0,0,1,4.433,3.89c.793,1.863-.151,3.708-1.611,4.922a12.3,12.3,0,0,1-4.947,2.13c-.23.067-.86.2-1.556.334" transform="translate(116.039)" fill="none" stroke="#000" stroke-miterlimit="10" stroke-width="3"/>
        <path id="Path-29" data-name="Path" d="M0,27.692S39.846,19.329,47.33,7.282A16.871,16.871,0,0,0,49.886,0" transform="translate(387.327 88.302)" fill="none" stroke="#000" stroke-miterlimit="10" stroke-width="2"/>
        <path id="Path-30" data-name="Path" d="M159.9,84.934c69.5-7.4,147.943-6.305,147.943-6.305h44.024a35.933,35.933,0,0,0,8.448-1c6.758-1.614,20.08-5.152,30.653-10.147,7.17-3.392,15.532,2.045,14.921,9.983a.993.993,0,0,1-.036.316,8.706,8.706,0,0,1,8.163,11.688c-14.848,40.9-58.048,39.617-58.048,39.617-5.523.164-11.033.382-16.562.668a722.778,722.778,0,0,0-144.237,21.319c-13.128,3.344-26.124,8.114-39.264,12.059-11.2,3.392-22.521,6.166-34.153,7.015-22.5,1.632-45.586-4.194-64.134-17.229C16.993,124.35-17.972,64.78,10.174,16.424A32.651,32.651,0,0,1,58.3,6.714c22.121,16.962,39.791,50.006,48.856,69.5" transform="translate(31.357 10.486)" fill="none" stroke="#000" stroke-miterlimit="10" stroke-width="3"/>
        <path id="Path-31" data-name="Path" d="M96.719.49H0" transform="translate(347.736 180.415)" fill="none" stroke="#000" stroke-miterlimit="10" stroke-width="2"/>
        <path id="Path-32" data-name="Path" d="M0,19.584A19.617,19.617,0,0,1,19.535,0h96.731a19.617,19.617,0,0,1,19.541,19.584" transform="translate(328.213 141.743)" fill="none" stroke="#000" stroke-miterlimit="10" stroke-width="2"/>
      </g>
      <path id="Path-33" data-name="Path" d="M137.014,9.334A12.585,12.585,0,0,1,124.4,21.969H9.95A11.009,11.009,0,0,1,11.61.018H126.06A12.563,12.563,0,0,1,136.4,5.425a12.813,12.813,0,0,1,.612,3.908Z" transform="translate(337.99 337.902)" fill="#d8d8d8"/>
      <g id="Group-7" data-name="Group" transform="translate(44.681)">
        <g id="Group-8" data-name="Group" transform="translate(0 111.173)">
          <g id="Group-9" data-name="Group" transform="translate(107.734 43.458)">
            <path id="Path-34" data-name="Path" d="M139.954,12.644A12.585,12.585,0,0,1,127.34,25.279H12.89A12.641,12.641,0,1,1,12.89,0H127.34a12.616,12.616,0,0,1,12,8.733,12.812,12.812,0,0,1,.612,3.908Z" transform="translate(182.635 179.96)" fill="none" stroke="#000" stroke-miterlimit="10" stroke-width="2"/>
            <path id="Path-35" data-name="Path" d="M23.384,30.738l-.23,1.948a3.636,3.636,0,0,1-3.6,3.21H6.974a3.636,3.636,0,0,1-3.6-3.21L1.748,18.728c.7-.134,1.326-.267,1.556-.334a11.952,11.952,0,0,0,4.947-2.13c1.441-1.232,2.422-3.034,1.611-4.922A6.878,6.878,0,0,0,5.43,7.452,9.3,9.3,0,0,0,.4,7.367L.022,4.042A3.638,3.638,0,0,1,3.625,0h19.3a3.638,3.638,0,0,1,3.6,4.042l-.448,3.793" transform="translate(0 17.236)" fill="none" stroke="#000" stroke-miterlimit="10" stroke-width="2"/>
            <path id="Path-36" data-name="Path" d="M.493.382.475.516" transform="translate(24.568 33.36)" fill="none" stroke="#000" stroke-miterlimit="10" stroke-width="4"/>
            <path id="Path-37" data-name="Path" d="M.49.5V.446" transform="translate(23.627 41.259)" fill="none" stroke="#000" stroke-miterlimit="10" stroke-width="4"/>
            <path id="Path-38" data-name="Path" d="M5.291,16.758a.5.5,0,0,0-.164,0,1.009,1.009,0,0,0-.23,0,3.138,3.138,0,0,0-.5,6.233,2.574,2.574,0,0,0,1.011,0,6.554,6.554,0,0,0,3.9-2.16,21.542,21.542,0,0,0,2.755-7.2.128.128,0,0,0,0-.079,23.664,23.664,0,0,0,.418-5.7,20.084,20.084,0,0,0-.2-2.427A6.256,6.256,0,0,0,7.066.094.436.436,0,0,1,6.854.057C4.31-.258.744.707.083,3.583c-.606,2.6,2.2,4.825,4.511,5.025,0,0,.606.079,1.459.134,1.708.115,4.548.1,6.425-.9a4.311,4.311,0,0,0,.775-.516" transform="translate(19.008 25.001)" fill="none" stroke="#000" stroke-miterlimit="10" stroke-width="3"/>
            <path id="Path-39" data-name="Path" d="M8.822,0H3.753A3.775,3.775,0,0,0,3.2,7.507c4.178.674,8.95.813,9.768-2.937" transform="translate(18.129 33.882)" fill="none" stroke="#000" stroke-miterlimit="10" stroke-width="3"/>
            <path id="Path-40" data-name="Path" d="M45.811,0S60.581,14.061,55.972,57.653a19.483,19.483,0,0,1-3.149,8.7l-1.6,2.427a19.634,19.634,0,0,1-11.172,8.059C30.4,79.482,12.9,85.6,2.09,97.191A7.653,7.653,0,0,0,7.619,110.1a7.565,7.565,0,0,0,6.316-3.374c4.4-6.639,17.731-20.737,49.88-20.44,36.261.334,50.867,14.783,55.548,21.01a6.959,6.959,0,1,0,10.646-8.933c-14.14-15.4-31.434-21.137-40.978-23.268A19.543,19.543,0,0,1,73.588,56.737c-.533-13.515-.811-46.323,8.326-56.725" transform="translate(186.223 205.239)" fill="none" stroke="#000" stroke-miterlimit="10" stroke-width="4"/>
            <path id="Path-41" data-name="Path" d="M107.952,7.2v.983c0,6.73-5.414,7.889-10.089,8L7.388,18.3C3.421,18.4.085,14.929,0,10.584V10.4C0,6.154,3.125,2.6,7.037,2.512c0,0,50.618-1.432,89.81-2.512a10.751,10.751,0,0,0,4.844,5.65A11.032,11.032,0,0,0,107.952,7.2Z" transform="translate(93.38 96.148)" fill="none" stroke="#000" stroke-miterlimit="10" stroke-width="4"/>
            <path id="Path-42" data-name="Path" d="M55.16,7.4a7.137,7.137,0,0,1-.739,3.192L13.958,93.726a7.367,7.367,0,0,1-4.844,3.9,7.252,7.252,0,0,1-4.99-.51A7.406,7.406,0,0,1,0,90.443a8.247,8.247,0,0,1,.073-1.02,7.294,7.294,0,0,1,.666-2.167L41.2,4.115A7.337,7.337,0,0,1,55.124,7.362Z" transform="translate(194.266 0)" fill="none" stroke="#000" stroke-miterlimit="10" stroke-width="4"/>
          </g>
          <path id="Path-43" data-name="Path" d="M.557,1.032C.509.862.442.7.387.534S.254.182.206,0" transform="translate(29.022 41.626)" fill="none" stroke="#000" stroke-linecap="round" stroke-linejoin="round" stroke-miterlimit="10" stroke-width="4"/>
          <path id="Path-44" data-name="Path" d="M0,3.659l1.241-1.25L3.615,0" transform="translate(29.579 39.004)" fill="none" stroke="#000" stroke-linecap="round" stroke-linejoin="round" stroke-miterlimit="10" stroke-width="4"/>
          <path id="Path-45" data-name="Path" d="M0,0S1.593,4.764,7.678,5.086" transform="translate(43.549 45.953)" fill="none" stroke="#000" stroke-miterlimit="10" stroke-width="3"/>
          <path id="Path-46" data-name="Path" d="M16.481,57.113c-5.45,2.761-11.633-3.21-11.2-8.132A9.145,9.145,0,0,0,2.3,40.831c-.163-.164-.315-.334-.46-.5A7.021,7.021,0,0,1,.694,32.547c1.132-2.64,3.573-4.187,1.877-7.034A13.58,13.58,0,0,1,.96,21.538a13.251,13.251,0,0,1,2.67-10.626c2.495-3.034,6.558-2.2,9.895-3.259C17.54,6.372,19.418,2.045,23.632.716A11.344,11.344,0,0,1,29.8.832c1.774.419,3.555.886,5.28,1.432s3.3,1.013,5.026.5C42.368,2.1,44.106.018,46.565,0a6.121,6.121,0,0,1,5.45,3.459c1.744,3.18,1.756,7.8.115,10.547-1.7,2.84-5.244,4.042-8.3,4.655a105.633,105.633,0,0,1-11.881,1.365l-2.3.564a3.461,3.461,0,0,0-2.277,4.321A69.584,69.584,0,0,0,33.206,39" transform="translate(0 0)" fill="none" stroke="#000" stroke-miterlimit="10" stroke-width="3"/>
          <path id="Path-47" data-name="Path" d="M0,15.154s12.014,8.818,18.863,3.957S21.842,0,21.842,0" transform="translate(33.194 42.657)" fill="none" stroke="#000" stroke-linecap="round" stroke-linejoin="round" stroke-miterlimit="10" stroke-width="3"/>
          <g id="Group-10" data-name="Group" transform="translate(115.148 39.423)">
            <path id="Path-48" data-name="Path" d="M2.939,15.184s-5.1-3.459-1.859-6.991S0,0,0,0" transform="translate(0 0)" fill="none" stroke="#000" stroke-miterlimit="10" stroke-width="4"/>
            <path id="Path-49" data-name="Path" d="M0,10.092S3.379,7.8,1.211,5.462,1.932,0,1.932,0" transform="translate(7.65 5.692)" fill="none" stroke="#000" stroke-miterlimit="10" stroke-width="4"/>
          </g>
        </g>
        <g id="Group-11" data-name="Group" transform="translate(79.519)">
          <ellipse id="Oval-2" data-name="Oval" cx="66.563" cy="66.708" rx="66.563" ry="66.708" transform="translate(0)" fill="none" stroke="#666" stroke-miterlimit="10" stroke-width="2"/>
          <ellipse id="Oval-3" data-name="Oval" cx="36.557" cy="36.637" rx="36.557" ry="36.637" transform="translate(30.005 30.071)" fill="none" stroke="#666" stroke-miterlimit="10" stroke-width="2"/>
          <ellipse id="Oval-4" data-name="Oval" cx="6.267" cy="6.281" rx="6.267" ry="6.281" transform="translate(60.295 60.426)" fill="none" stroke="#666" stroke-miterlimit="10" stroke-width="2"/>
          <path id="Path-50" data-name="Path" d="M9.677,0,0,15.633" transform="translate(69.863 45.734)" fill="none" stroke="#666" stroke-miterlimit="10" stroke-width="2"/>
          <path id="Path-51" data-name="Path" d="M.49,0V6.518" transform="translate(66.073 30.071)" fill="none" stroke="#666" stroke-miterlimit="10" stroke-width="2"/>
          <path id="Path-52" data-name="Path" d="M6.165.49H0" transform="translate(96.955 66.218)" fill="none" stroke="#666" stroke-miterlimit="10" stroke-width="2"/>
          <path id="Path-53" data-name="Path" d="M.49,6.336V0" transform="translate(66.073 97.015)" fill="none" stroke="#666" stroke-miterlimit="10" stroke-width="2"/>
          <path id="Path-54" data-name="Path" d="M0,.49H5.559" transform="translate(29.999 66.218)" fill="none" stroke="#666" stroke-miterlimit="10" stroke-width="2"/>
        </g>
      </g>
      <path id="Rectangle" d="M16.447,0h2.26A16.4,16.4,0,0,1,35.131,16.407v2.246A16.452,16.452,0,0,1,18.684,35.081h-2.26A16.4,16.4,0,0,1,0,18.676V16.43A16.452,16.452,0,0,1,16.447,0Z" transform="translate(285.991 216.159) rotate(-64.69)"/>
      <path id="Path-55" data-name="Path" d="M33.043,7.439,28.35,17.386a8.663,8.663,0,0,1-11.506,4.133L4.939,15.874A8.7,8.7,0,0,1,.821,4.344l.315-.668C4.37,1.091,9.959-2.392,12,2.347c2.937,6.846,6.758,4.637,11.639,1.772C27.714,1.7,32.607.9,33.043,7.439Z" transform="translate(291.711 203.389)" fill="#fff"/>
      <ellipse id="Oval-5" data-name="Oval" cx="3.664" cy="3.672" rx="3.664" ry="3.672" transform="translate(302.651 192.913)" fill="#fff"/>
      <path id="Path-56" data-name="Path" d="M40.647,8.42a15.43,15.43,0,0,1,1.568,4.248,16.031,16.031,0,0,1-4.893,15.044c-1.623,1.438-3.688,2.561-5.329,4.066a8.425,8.425,0,0,0-2.543,3.9,3.269,3.269,0,0,1-.606,1.426c-.957,1.032-1.9-.607-2.725-.886a5.723,5.723,0,0,0-4.075.2,15.934,15.934,0,0,1-17.5-25.865C7.082,7.965,10.4,6.308,13.628,4.621a47.289,47.289,0,0,1,8.7-3.993A15.974,15.974,0,0,1,40.647,8.42Z" transform="translate(328.172 139.918)"/>
      <g id="Group-12" data-name="Group" transform="translate(336.447 150.511)">
        <ellipse id="Oval-6" data-name="Oval" cx="3.452" cy="3.459" rx="3.452" ry="3.459" transform="translate(0 9.655)" fill="#fff"/>
        <ellipse id="Oval-7" data-name="Oval" cx="3.452" cy="3.459" rx="3.452" ry="3.459" transform="translate(9.295 4.673)" fill="#fff"/>
        <ellipse id="Oval-8" data-name="Oval" cx="3.452" cy="3.459" rx="3.452" ry="3.459" transform="translate(18.015 0)" fill="#fff"/>
      </g>
      <path id="Path-57" data-name="Path" d="M0,0S22.726,70.446,110.211,66.641c29.067-3.641,63.662,0,94.467,40.661,46.828,61.853,28.025,130.757,6.746,174.495" transform="translate(252.674 42.184)" fill="none" stroke="#666" stroke-miterlimit="10" stroke-width="2"/>
      <path id="Path-58" data-name="Path" d="M0,.49H522.909" transform="translate(22.091 469.48)" fill="none" stroke="#000" stroke-miterlimit="10" stroke-width="4.11"/>
    </g>
  </g>
</svg>
