<svg xmlns="http://www.w3.org/2000/svg" xmlns:xlink="http://www.w3.org/1999/xlink" width="547.163" height="447.733" viewBox="0 0 547.163 447.733">
  <defs>
    <clipPath id="clip-path">
      <path id="Path" d="M32.809,388.41s-53.846-53.841-23.574-97.594,100.922-81.3,71.486-152.568S103.932,30.191,155.356,33.724s190,35.373,225.879-16.129S567.219,27.04,542.2,208.589,381.235,388.41,381.235,388.41Z" transform="translate(0 0)" fill="none"/>
    </clipPath>
  </defs>
  <g id="reset-password" transform="translate(1.127 1.849)">
    <g id="Group" transform="translate(0 0)">
      <g id="Clipped" transform="translate(0 54.589)">
        <path id="Path-2" data-name="Path" d="M32.809,388.41s-53.846-53.841-23.574-97.594,100.922-81.3,71.486-152.568S103.932,30.191,155.356,33.724s190,35.373,225.879-16.129S567.219,27.04,542.2,208.589,381.235,388.41,381.235,388.41Z" transform="translate(0 0)" fill="none"/>
        <g id="Clipped-2" data-name="Clipped" transform="translate(0 0)" clip-path="url(#clip-path)">
          <g id="Group-2" data-name="Group" transform="translate(32.818 -1.728)">
            <path id="Path-3" data-name="Path" d="M0,0V68.789H485.118V0" transform="translate(28.561 60.718)" fill="none" stroke="#666" stroke-miterlimit="10" stroke-width="2"/>
            <path id="Shape" d="M1.1,347.64H.012v-1.315L1.1,347.639Zm475.478-87.008h0l-240.764-.012-69.033-.352L156,260.219,0,259.462V0H476.574V260.632ZM332.566,51.272a56.121,56.121,0,0,0,7.188,18.274,69.473,69.473,0,0,0,8.629,11.439c1.073,1.164,2.227,2.336,3.53,3.581a96.064,96.064,0,0,0,8.556,7.168,84.445,84.445,0,0,0,12.359,7.574,73.2,73.2,0,0,0,32.472,8.126,57.938,57.938,0,0,0,9.99-.855,52.518,52.518,0,0,0,17.864-6.611,61.05,61.05,0,0,0,12.556-10.015,77.907,77.907,0,0,0,9.849-12.682Z" transform="translate(32.812 129.507)" fill="none" stroke="#666" stroke-miterlimit="10" stroke-width="2"/>
            <path id="Path-4" data-name="Path" d="M.1,0S-6.685,106.131,89.817,108.912" transform="translate(32.721 129.501)" fill="none" stroke="#666" stroke-miterlimit="10" stroke-width="2"/>
            <path id="Path-5" data-name="Path" d="M0,48.745A56.3,56.3,0,0,0,7.188,67.02a69.35,69.35,0,0,0,8.629,11.44c1.138,1.212,2.319,2.424,3.53,3.581A95.693,95.693,0,0,0,27.9,89.208a84.165,84.165,0,0,0,12.359,7.574c13.2,6.617,28.207,9.773,42.462,7.271a52.513,52.513,0,0,0,17.864-6.61c9.362-5.58,16.653-13.56,22.406-22.7,6.861-10.906,11.506-23.479,14.86-35.494,3.53-12.8,6.152-25.927,6.152-39.251" transform="translate(365.378 132.033)" fill="none" stroke="#666" stroke-miterlimit="10" stroke-width="2"/>
            <path id="Path-6" data-name="Path" d="M5.108,60.718H536.593a5.114,5.114,0,0,0,3.633-8.725L488.264,0H46.849L1.263,52.247a5.108,5.108,0,0,0,3.845,8.471Z" transform="translate(0 0)" fill="none" stroke="#666" stroke-miterlimit="10" stroke-width="2"/>
            <path id="Path-7" data-name="Path" d="M3.082,51.8c2.362-2.557,5.1-4.926,7-7.75,5.311-7.962,3.27-18.123,6.661-26.848C20.892,6.545,33.948-.89,46.767.086a101.562,101.562,0,0,0-2.483,15.457c-.375,4.665.533,9.858-.466,14.378-1.635,7.271-10.343,11.682-11.4,19.147-.939,6.6,4.844,12.766,3.876,19.48-1.011,7.2-9.283,11.185-12.323,17.571-2.483,5.181-1.32,11.106-2.6,16.62C19.8,109.4,14.4,115.269,7.315,118.032c-.23.1-.472.194-.7.273A42.18,42.18,0,0,1,0,107.883" transform="translate(424.929 263.254)" fill="none" stroke="#666" stroke-miterlimit="10" stroke-width="2"/>
            <path id="Path-8" data-name="Path" d="M32.385,0C13.262,26.109,4.269,81.192.769,109.572q-.436,3.6-.769,6.568" transform="translate(431.469 271.707)" fill="none" stroke="#666" stroke-miterlimit="10" stroke-width="2"/>
            <path id="Path-9" data-name="Path" d="M0,2.266A5.867,5.867,0,0,1,4.669,0h79.3A5.933,5.933,0,0,1,88.66,2.266" transform="translate(384.047 387.872)" fill="none" stroke="#666" stroke-miterlimit="10" stroke-width="2"/>
            <path id="Path-10" data-name="Path" d="M38.568,137.048c3.4-4.29,7.576-13.839,9.416-21.643,1.526-6.429-1.157-13.051-1.768-19.65-.957-10.331,3.082-21.443-1.175-30.8-2.38-5.223-7.006-8.937-9.78-13.936-5.111-9.21-3.149-20.989-6.413-31.1C24.852,7.578,12.317-1.038,0,.1A138.829,138.829,0,0,1,2.386,18c.363,5.4-.515,11.415.454,16.656C4.4,43.09,12.765,48.2,13.789,56.844c.9,7.634-4.633,14.79-3.724,22.564.981,8.349,8.914,12.954,11.845,20.346,2.38,6,1.26,12.882,2.5,19.256a25.07,25.07,0,0,0,14.158,18.038Z" transform="translate(381.171 243.323)" fill="none" stroke="#666" stroke-miterlimit="10" stroke-width="2"/>
            <path id="Path-11" data-name="Path" d="M0,0C18.354,30.247,27,94.019,30.369,126.944c.291,2.854.551,5.453.751,7.81" transform="translate(388.692 253.094)" fill="none" stroke="#666" stroke-miterlimit="10" stroke-width="2"/>
            <path id="Path-12" data-name="Path" d="M0,35.231S1.266,8.947,11.857.955,22.218,37.776,22.218,37.776" transform="translate(416.433 259.107)" fill="none" stroke="#666" stroke-miterlimit="10" stroke-width="2"/>
            <path id="Path-13" data-name="Path" d="M.613,29.823S-1.549,14.784,2.248,0" transform="translate(427.398 285.231)" fill="none" stroke="#666" stroke-miterlimit="10" stroke-width="2"/>
            <path id="Path-14" data-name="Path" d="M.552.49H.225" transform="translate(405.089 296.738)" fill="none" stroke="#666" stroke-miterlimit="10" stroke-width="2"/>
            <path id="Path-15" data-name="Path" d="M21.346,0V90.45H0" transform="translate(467.027 206.778)" fill="none" stroke="#666" stroke-miterlimit="10" stroke-width="2"/>
            <path id="Path-16" data-name="Path" d="M0,0V116.45H28.94" transform="translate(365.378 180.779)" fill="none" stroke="#666" stroke-miterlimit="10" stroke-width="2"/>
            <path id="Path-17" data-name="Path" d="M.49,35.318V0" transform="translate(447.613 236.086)" fill="none" stroke="#666" stroke-miterlimit="10" stroke-width="2"/>
            <path id="Path-18" data-name="Path" d="M.49,0V26.078" transform="translate(405.152 228.815)" fill="none" stroke="#666" stroke-miterlimit="10" stroke-width="2"/>
            <path id="Path-19" data-name="Path" d="M17.258,53.065H0V0H7.188" transform="translate(365.378 199.053)" fill="none" stroke="#666" stroke-miterlimit="10" stroke-width="2"/>
            <path id="Path-20" data-name="Path" d="M85.123,0V45.34H0" transform="translate(403.25 206.778)" fill="none" stroke="#666" stroke-miterlimit="10" stroke-width="2"/>
            <path id="Path-21" data-name="Path" d="M0,51.829v91.432H122.995V0H82.731" transform="translate(53.94 153.967)" fill="none" stroke="#666" stroke-miterlimit="10" stroke-width="2"/>
            <path id="Path-22" data-name="Path" d="M42.486,0V143.261H0V45.086" transform="translate(94.185 153.967)" fill="none" stroke="#666" stroke-miterlimit="10" stroke-width="2"/>
            <path id="Path-23" data-name="Path" d="M40.245,0h82.749V53.065H0V6.744" transform="translate(53.94 199.053)" fill="none" stroke="#666" stroke-miterlimit="10" stroke-width="2"/>
            <path id="Path-24" data-name="Path" d="M159.631,0V179.846H79.806l-69.034-.357L0,179.44V0Z" transform="translate(188.792 210.286)" fill="none" stroke="#666" stroke-miterlimit="10" stroke-width="2"/>
            <path id="Path-25" data-name="Path" d="M138.061,0V164.771H69.034L0,164.413V0Z" transform="translate(199.564 225.362)" fill="none" stroke="#666" stroke-miterlimit="10" stroke-width="2"/>
          </g>
        </g>
      </g>
      <path id="Path-26" data-name="Path" d="M32.809,388.41s-53.846-53.841-23.574-97.594,100.922-81.3,71.486-152.568S103.932,30.191,155.356,33.724s190,35.373,225.879-16.129S567.219,27.04,542.2,208.589,381.235,388.41,381.235,388.41Z" transform="translate(0 54.589)" fill="none" stroke="#666" stroke-miterlimit="10" stroke-width="2"/>
      <path id="Shape-2" data-name="Shape" d="M8.208,441.787a8.24,8.24,0,0,1,.055-16.48H38.02c-35.576-103.659-34.8-167.6-34.8-167.6-1.029-20.1,5.6-37.615,23.066-44.837a42,42,0,0,1,16.647-2.975C39.964,205.5,8.5,156.653,31.964,89.476,38,72.256,48.466,44.99,68.45,41c6.861-1.339,13.952.048,20.534,2.3C86.131,26.486,94.507,6.267,111.868,1.42c.4-.127.884-.2,1.211-.3s.678-.175,1.059-.254A44.809,44.809,0,0,1,125.566.08,49.977,49.977,0,0,1,138.96,2.607a16.569,16.569,0,0,1,1.641.606,1.94,1.94,0,0,1,.43.176c.454.176.884.351,1.314.558l.678.3c.358.176.708.327,1.035.527a7.191,7.191,0,0,1,.957.5c.43.23.86.455,1.266.709l.224.151a11.845,11.845,0,0,1,1.29.83,10.882,10.882,0,0,1,1.211.909,2.663,2.663,0,0,1,.43.3,12.511,12.511,0,0,1,1.132.939,14.919,14.919,0,0,1,1.338,1.211,8.941,8.941,0,0,1,.957.958c.478.5.963,1.06,1.417,1.618.606.757,1.181,1.515,1.665,2.218a12.753,12.753,0,0,1,.757,1.06c.224.358.454.685.654,1.036a33.965,33.965,0,0,1,2.144,3.866c.127.3.254.576.351.855a20.613,20.613,0,0,1,1.114,3.26c.073.248.127.5.176.733,1.108,4.969-.351,7.774-.557,8.125,3.282,6.465,4.142,14.893,4.142,19.692,0,1.236-.811,6.035-.3,7.574a1.267,1.267,0,0,0,.151.3l.7.982,9.41,13.154a2.241,2.241,0,0,0,2.326.86c2.319-.558,4.639-1.036,7.012-1.412h.048a106.63,106.63,0,0,1,14.291-1.5h.23a117.328,117.328,0,0,1,57.019,12.67c.351.151.678.333,1.03.509,36.079,17.39,47.863,45.94,48.342,47.152v.055c16.011,28.32,24.513,65.456,20.28,95.018-4.239,29.435-30.3,62.96-54.4,84.112A30.3,30.3,0,0,0,260.5,333.96c-1.387,22.522-7.37,63.341-14.709,107.852h-87.2l-7.267-74.448a18.646,18.646,0,0,0-.557-3.132v-.079a21.689,21.689,0,0,0-11.705-14.311l-69.179-36.73L90.2,425.228l3.028,16.559H18.479l-.073.079Z" transform="translate(98.315 0)" fill="#fff"/>
      <path id="Path-27" data-name="Path" d="M33.306,113.123C36.025,78.477,0,60.373,0,60.373L32.755,24.255c-2.773,5.593,8.478,14.814,19.6,15.657s25.022-11.991,27.965-22.3S81.441,1.448,81.441,1.448L95.866,0C179.748,2.369,202.4,60.373,202.4,60.373,153.757,43.6,144.868,85.778,144.868,85.778,153.5,99.187,157.53,119.97,157.53,119.97c8.072,35.252-25.548,83.009-25.548,83.009C114.517,184.935,25.845,173.593,23.9,176.5c0,0,15.3-21.728,9.41-63.378Z" transform="translate(201.281 74.91)" fill="#2e2e2e"/>
      <path id="Path-28" data-name="Path" d="M66.645,34.028c-2.374-5.877-8.357-10.2-12.717-12.694a41.169,41.169,0,0,0-5.147-2.551C48.127,30.12,33.824,36.53,26.508,39.051c-2.549.885-4.239,1.315-4.239,1.315s-.757-.83-2.071-2.169c-1.817-1.818-4.645-4.623-7.921-7.525a55.9,55.9,0,0,1,3.985,18.177,31.053,31.053,0,0,1-.048,3.436l-12.426-.23C5,46.855.548,43.219.548,43.219-2.3,26.405,6.071,6.162,23.426,1.339c.406-.127.811-.2,1.211-.3A37.585,37.585,0,0,1,31.625,0h.03c9.737.509,21.467,3.841,28.709,12.851,4.844,6.059,6.661,10.906,7.115,14.415.575,4.417-.836,6.762-.836,6.762Z" transform="translate(192.625 1.195)" fill="#131313"/>
      <path id="Path-29" data-name="Path" d="M36.611,0H88.834l3.028,16.559L6.83,16.475S-8.582,8.053,6.9,0Z" transform="translate(100.063 426.44)" fill="#666"/>
      <g id="Group-3" data-name="Group" transform="translate(17.924 1.127)">
        <path id="Path-30" data-name="Path" d="M.548,42.438C-2.3,25.624,6.077,5.38,23.432.557c.406-.127.805-.2,1.211-.3S25.327.079,25.7,0" transform="translate(169.166 0.85)" fill="none" stroke="#000" stroke-miterlimit="10" stroke-width="3"/>
        <path id="Path-31" data-name="Path" d="M6.861,1.1C16.017-1.319,37.139-.713,48.087,12.919s6.3,21.176,6.3,21.176C50.455,24.3,36.515,18.833,36.515,18.833,35.631,34.1,9.992,40.422,9.992,40.422S5.626,35.726,0,30.727A55.9,55.9,0,0,1,3.985,48.9a32.6,32.6,0,0,1-.048,3.436" transform="translate(186.948)" fill="none" stroke="#000" stroke-miterlimit="10" stroke-width="5.77"/>
        <path id="Path-32" data-name="Path" d="M2.525,0C20.825,20.843,35.28,47.467,34.68,75.9,34.075,106.349,14.055,130.525,0,156.033" transform="translate(307.49 134.156)" fill="none" stroke="#000" stroke-miterlimit="10" stroke-width="3"/>
        <path id="Path-33" data-name="Path" d="M1.136,0S-9.637,28.253,35.162,55.859" transform="translate(306.354 272.442)" fill="none" stroke="#000" stroke-miterlimit="10" stroke-width="3"/>
        <path id="Path-34" data-name="Path" d="M0,0C6.056,6.314,7.418,18.353,7.418,24.461c0,1.339-.933,6.816-.151,7.877L17.373,46.461a2.21,2.21,0,0,0,2.325.86c40.245-9.579,85.953,4.4,114.523,38.033,24.374,28.629,39.052,77.556,33.705,114.517-4.239,29.435-30.278,62.96-54.391,84.118a30.241,30.241,0,0,0-10.373,20.7c-1.411,22.522-7.364,63.342-14.709,107.852" transform="translate(238.063 29.327)" fill="none" stroke="#000" stroke-miterlimit="10" stroke-width="3"/>
        <path id="Path-35" data-name="Path" d="M101.3,0S98.748,32.961,77.935,36.748,49.4,24.539,49.4,24.539c-.733.606-1.441,1.212-2.144,1.872A246.1,246.1,0,0,0,14.606,62.16,236.369,236.369,0,0,0,0,84.2" transform="translate(164.694 75.37)" fill="none" stroke="#000" stroke-miterlimit="10" stroke-width="3"/>
        <path id="Path-36" data-name="Path" d="M23.338,128.695,0,0,69.155,36.73A21.721,21.721,0,0,1,81.417,54.247l7.267,74.448" transform="translate(150.639 313.177)" fill="none" stroke="#000" stroke-miterlimit="10" stroke-width="3"/>
        <path id="Path-37" data-name="Path" d="M18.173,249.234l-10.192-.085a8.241,8.241,0,0,1,.067-16.475H37.787C2.241,129.022,3,65.075,3,65.075,1.962,44.958,8.6,27.436,26.057,20.237c14.467-5.986,31.768-2.066,45.6,3.854,11.506,4.926,22.26,11.4,32.615,18.4,5.081,3.435,10.076,7,15.054,10.579,1.326.951,5.3,4.932,6.964,4.6,0,0,14.533-24.491,10.125-57.664" transform="translate(80.963 192.638)" fill="none" stroke="#000" stroke-miterlimit="10" stroke-width="3"/>
        <path id="Path-38" data-name="Path" d="M43.7,0C38.6,12.621,13.462,46.873,0,51.829" transform="translate(179.954 179.793)" fill="none" stroke="#000" stroke-miterlimit="10" stroke-width="3"/>
        <path id="Path-39" data-name="Path" d="M30.248,134.764,19.172,107.419c-5.729-12.6-10.422-26.733-9.156-40.765.527-5.756,1.992-11.615,5.2-16.511,2.6-4.017,6.764-6.259,10.749-8.634,2.017-1.212,5.069-3.03,5.371-5.58.533-4.569-6.152-6.186-9.459-6.108-4.772.073-8.429,2.424-13.2,1.06A11.51,11.51,0,0,1,.2,21.592a27.233,27.233,0,0,1,.382-8.519C1.284,8.7,2.4,2.379,7.092.537a2.082,2.082,0,0,1,.527-.2.163.163,0,0,1,.1,0A.5.5,0,0,1,8,.282,15.621,15.621,0,0,1,13.65.234" transform="translate(145.521 52.142)" fill="none" stroke="#000" stroke-miterlimit="10" stroke-width="3"/>
        <path id="Path-40" data-name="Path" d="M19.833,169.744S-15.968,119.453,8.63,49C14.662,31.809,25.162,4.543,45.145.532c7.794-1.539,15.92.479,23.211,3.284,2.216.854,6.3,2.927,6.056,5.8a3.448,3.448,0,0,1-1.29,2.272" transform="translate(104.064 40.459)" fill="none" stroke="#000" stroke-miterlimit="10" stroke-width="3"/>
        <path id="Path-41" data-name="Path" d="M0,.49H363.31" transform="translate(0 441.382)" fill="none" stroke="#000" stroke-miterlimit="10" stroke-width="5.77"/>
      </g>
      <rect id="Rectangle" width="52.665" height="28.956" rx="3" transform="translate(168.938 53.467)" fill="#e9e9e9"/>
      <g id="Group-4" data-name="Group" transform="translate(168.938 29.303)">
        <rect id="Rectangle-2" data-name="Rectangle" width="52.665" height="28.956" rx="4.55" transform="translate(0 24.164)" fill="none" stroke="#000" stroke-miterlimit="10" stroke-width="3"/>
        <path id="Path-42" data-name="Path" d="M33.857,0s-.048.86-.273,2.248C32.851,6.992,30.223,17.923,21.3,22.14c-8.532,4.017-17.283,2.1-21.3.836l3.833,8.6L5.65,35.67l.079.151a3.807,3.807,0,0,1-.86,4.3L2.955,41.88l-.1.1" transform="translate(60.217 29.744)" fill="none" stroke="#000" stroke-miterlimit="10" stroke-width="3"/>
        <ellipse id="Oval" cx="11.185" cy="11.191" rx="11.185" ry="11.191" transform="translate(65.085 0)" fill="none" stroke="#000" stroke-miterlimit="10" stroke-width="3"/>
        <path id="Path-43" data-name="Path" d="M0,7.822A11.848,11.848,0,0,1,1.817,4.387,11.187,11.187,0,1,1,14.533,21.7" transform="translate(38.126 16.353)" fill="none" stroke="#000" stroke-miterlimit="10" stroke-width="3"/>
        <path id="Path-44" data-name="Path" d="M0,5.243A7.453,7.453,0,0,1,8.133.032" transform="translate(58.23 16.346)" fill="none" stroke="#000" stroke-miterlimit="10" stroke-width="3"/>
      </g>
      <ellipse id="Oval-2" data-name="Oval" cx="3.397" cy="3.399" rx="3.397" ry="3.399" transform="translate(240.128 42.155)"/>
      <path id="Path-45" data-name="Path" d="M0,.321S6.056,2.836,10.058,0" transform="translate(231.323 70.802)" fill="none" stroke="#000" stroke-miterlimit="10" stroke-width="3"/>
      <ellipse id="Oval-3" data-name="Oval" cx="2.786" cy="2.787" rx="2.786" ry="2.787" transform="translate(209.989 59.811)"/>
      <path id="Path-46" data-name="Path" d="M5.022,54.247C4.253,50.266-1.222,17.087.25,0" transform="translate(244.958 314.305)" fill="none" stroke="#000" stroke-miterlimit="10" stroke-width="3"/>
      <path id="Path-47" data-name="Path" d="M.51.181S.467.309.407.563" transform="translate(311.873 63.017)" fill="none"/>
      <ellipse id="Oval-4" data-name="Oval" cx="32.101" cy="32.119" rx="32.101" ry="32.119" transform="translate(435.335 154.817)" fill="#cbcbcb"/>
      <ellipse id="Oval-5" data-name="Oval" cx="33.136" cy="33.16" rx="33.136" ry="33.16" transform="translate(62.227 264.82)" fill="#cbcbcb"/>
      <ellipse id="Oval-6" data-name="Oval" cx="19.202" cy="19.213" rx="19.202" ry="19.213" transform="translate(295.463 17.167)" fill="#cbcbcb"/>
    </g>
  </g>
</svg>
