<?xml version="1.0" encoding="utf-8"?>
<!-- Svg Vector Icons : http://www.onlinewebfonts.com/icon -->
<!DOCTYPE svg PUBLIC "-//W3C//DTD SVG 1.1//EN" "http://www.w3.org/Graphics/SVG/1.1/DTD/svg11.dtd">
<svg version="1.1" xmlns="http://www.w3.org/2000/svg" xmlns:xlink="http://www.w3.org/1999/xlink" x="0px" y="0px" viewBox="0 0 1000 1000" enable-background="new 0 0 1000 1000" xml:space="preserve">
<metadata> Svg Vector Icons : http://www.onlinewebfonts.com/icon </metadata>
<g><path d="M306,977.9l445.9-450c0.7-0.7,0.9-1.6,1.5-2.2c0.2-0.2,0.4-0.2,0.6-0.4c15.8-16,15.7-41.8-0.3-57.7l-450-445.9c-16-15.9-41.8-15.7-57.6,0.2c-7.9,7.9-11.8,18.3-11.8,28.7c0,10.5,4,21,12.1,28.9l421.3,417.5L248.1,920.6c-7.9,7.9-11.8,18.3-11.8,28.7c0,10.5,4,21,12.1,28.9C264.4,994,290.1,993.9,306,977.9L306,977.9z"/></g>
</svg>
