<svg xmlns="http://www.w3.org/2000/svg" width="545" height="476.789" viewBox="0 0 545 476.789">
  <g id="timesheet" transform="translate(0 1.148)">
    <g id="Group">
      <path id="Path" d="M4.329,147.036s-32.6-96.378,81.1-84.616,59.375-30.9,102.339-57.368S357.326,60.938,304.364,140.374,389,147.145,417.706,266.6c17.712,73.718-26.233,127.976-62.487,158.733" transform="translate(104.671 0)" fill="none" stroke="#666" stroke-miterlimit="10" stroke-width="2"/>
      <path id="Shape" d="M194,262.439,180.936,228.9,134.829,110.725H33.326A33.286,33.286,0,0,1,1.08,69.04L25.6.551C27.3,5.307,30.583,24.7,59.244,21.039c4.13,18.788,10.222,37.092,19.589,53.883,3.288,5.912,7.5,12.38,13.8,15.466a14.921,14.921,0,0,0,1.986.793c6.316,2.045,14.092.375,20.074-1.585,14.509-4.738,29.279-10.438,42.528-18.05C168.691,65,182.341,54.355,180.839,40.19v-.2a19.971,19.971,0,0,0-13.691-17.252A92.1,92.1,0,0,1,153.28,40.287a47.27,47.27,0,0,1-10.137-14.522,69.186,69.186,0,0,1-4.105-12.1C167.668,6.553,203.4.308,241.377,0c-4.481,4.127-7.667,10.039-6.734,16.283.817,5.542,5.341,10.68,10,13.6,7.745,4.853,18.082,4.454,26.426,1.368a44.811,44.811,0,0,0,20.359-15.774,27.29,27.29,0,0,0,4.705-11.388V4.018A265.441,265.441,0,0,1,334.6,13.246c49.153,15.835,79.407,60.079,87.951,109.521,3.555,20.7,3.821,42.417-.666,63.026-2.538,11.57-6.207,24.585-14.727,33.28a22.691,22.691,0,0,1-13.359,6.656,18.23,18.23,0,0,0,1.9-8.054,18.7,18.7,0,0,0-18.548-18.758l-11.832-.066-17.712-.091a13.217,13.217,0,0,0-1.635-.067H334.044L324,198.65l-54.609-.29c-.7,0-1.435.048-2.162.115.461.067.951.133,1.393.242-.491,0-.975.042-1.484.084a18.764,18.764,0,0,1,16.477,18.183v.351a6.378,6.378,0,0,1,0,.684,18.764,18.764,0,0,1-16.538,17.5,13.632,13.632,0,0,0,1.435.109,12.063,12.063,0,0,1-1.35.224c.732.067,1.435.133,2.168.133h-.685c-9.695,0-15.659,5.954-15.659,13.215a13.263,13.263,0,0,0,3.887,9.354c2.4,2.408,5.717,3.885,11.772,3.885Z" transform="translate(48.424 210.467)" fill="#fff"/>
      <path id="Path-2" data-name="Path" d="M0,11.569S13.861,9.887,19.051,0L14.527,25.359S69.669,6.6,79.782,4.181c0,0,3.258,20.991,16.229,26.624l13.383-17s16.78,4.236,12.19,27.084S53.507,82.831,42.74,82.389,20.383,75.327,8.514,39.754Z" transform="translate(107.644 219.949)" fill="#353642"/>
      <g id="Group-2" data-name="Group" transform="translate(48.424 143.967)">
        <path id="Path-3" data-name="Path" d="M25.106,0c3.512,5.712,7.043,11.412,10.688,17.039,2.247,3.467,6.34,8.411,1.986,12.035A8.869,8.869,0,0,1,32.87,30.89c-2.8.248-5.735-.424-7.436-2.826L16.956,14.026A13.025,13.025,0,0,0,0,9.1" transform="translate(56.694 31.06)" fill="none" stroke="#000" stroke-miterlimit="10" stroke-width="3"/>
        <path id="Path-4" data-name="Path" d="M32.034,18.461c2.216,5.264.715,8.659-1.877,10.365A9.64,9.64,0,0,1,17.24,26.218L0,0" transform="translate(81.831 31.091)" fill="none" stroke="#000" stroke-miterlimit="10" stroke-width="3"/>
        <path id="Path-5" data-name="Path" d="M96.394,23.436c6.274,7.624,14.188,21.783,18.566,27.695s11.148,2.348,11.148,2.348c5.5-2.959,4.566-7.866,2.162-13.826-5.922-14.631-14.376-24.361-23.8-30.738-29.218-19.75-59.193-5.18-68.113,28.911L1.08,135.541a33.286,33.286,0,0,0,32.246,41.685h101.5l59.193,151.72" transform="translate(0 0)" fill="none" stroke="#000" stroke-miterlimit="10" stroke-width="3"/>
        <path id="Path-6" data-name="Path" d="M41.269,30.339c7.267-2.517,6.934-14.1-3.379-18.007C26.5,8.011,6.274,1.9,1.193.375A.206.206,0,0,0,1.084.333C.727.224.478.133.285.091L0,0" transform="translate(91.368 2.603)" fill="none" stroke="#000" stroke-miterlimit="10" stroke-width="3"/>
        <path id="Path-7" data-name="Path" d="M42.435,31.863C36.077,24.227,18.673,19.9,7.313,17.807A8.958,8.958,0,0,1,.046,9.862,9.118,9.118,0,0,1,.488,6,9.029,9.029,0,0,1,9.917.047C29.295,2.008,49.278,8.1,64.059,21.225c0,0,71.655,54.639,80.212,59.958,3.53,2.142,6.825-.387,4.433-3.752l-.751-1.283a115.408,115.408,0,0,0-14.866-20.113" transform="translate(197.567 116.875)" fill="none" stroke="#000" stroke-miterlimit="10" stroke-width="3"/>
        <path id="Path-8" data-name="Path" d="M167.581,8.471C77.463,9.222,0,43.312,0,43.312L7.733,0" transform="translate(73.747 58.023)" fill="none" stroke="#000" stroke-miterlimit="10" stroke-width="3"/>
      </g>
      <path id="Path-9" data-name="Path" d="M14.283.29S4.466-1.931,1.857,5.923-3.478,26.272,15.288,27.01s7.745-2.947,6.661-9.016S14.283.29,14.283.29Z" transform="translate(415.438 445.896)" fill="#353642"/>
      <path id="Path-10" data-name="Path" d="M21.17,3.534S10.579-4.49,1.042,3.643A5.786,5.786,0,0,0,0,4.853" transform="translate(258.596 299.137)" fill="none" stroke="#000" stroke-miterlimit="10" stroke-width="3"/>
      <g id="Group-3" data-name="Group" transform="translate(101.491 163.158)" opacity="0.77">
        <path id="Path-11" data-name="Path" d="M45.968,38.088a9.635,9.635,0,0,0,12.916,2.6c2.562-1.694,4.063-5.071,1.9-10.286.394.575.751,1.083,1.1,1.549,4.372,5.936,11.148,2.36,11.148,2.36,5.5-2.959,4.572-7.866,2.168-13.832A75.9,75.9,0,0,0,66.018,3.84C68.47,1.547,71.383-.771,74.453.246c3.312,1.1,4.239,5.252,4.614,8.713.176,1.61.351,3.2.527,4.81l2.652,23.7c.884,7.866,1.768,15.847,3.688,23.526a69.2,69.2,0,0,0,4.106,12.1,47.269,47.269,0,0,0,10.137,14.522,92.111,92.111,0,0,0,13.867-17.548,19.971,19.971,0,0,1,13.692,17.251v.2c1.5,14.165-12.147,24.809-23.617,31.356-13.25,7.612-28.019,13.312-42.528,18.05-5.983,1.96-13.758,3.631-20.074,1.585a14.925,14.925,0,0,1-1.986-.793c-6.3-3.086-10.512-9.554-13.8-15.466C9.986,93.962,3.446,61.481,0,29.314c6.891-.95,13.758-2.009,20.54-3.467a.076.076,0,0,0,.042.067L28.4,38.869l.642,1.077c1.7,2.42,4.632,3.068,7.436,2.826a8.706,8.706,0,0,0,4.9-1.815c4.348-3.631.266-8.556-1.986-12.023" transform="translate(0 0)" fill="#fff"/>
        <g id="Group-4" data-name="Group" transform="translate(0 0)">
          <path id="Path-12" data-name="Path" d="M45.968,38.088a9.635,9.635,0,0,0,12.916,2.6c2.562-1.694,4.063-5.071,1.9-10.286.394.575.751,1.083,1.1,1.549,4.372,5.936,11.148,2.36,11.148,2.36,5.5-2.959,4.572-7.866,2.168-13.832A75.9,75.9,0,0,0,66.018,3.84C68.47,1.547,71.383-.771,74.453.246c3.312,1.1,4.239,5.252,4.614,8.713.176,1.61.351,3.2.527,4.81l2.652,23.7c.884,7.866,1.768,15.847,3.688,23.526a69.2,69.2,0,0,0,4.106,12.1,47.269,47.269,0,0,0,10.137,14.522,92.111,92.111,0,0,0,13.867-17.548,19.971,19.971,0,0,1,13.692,17.251v.2c1.5,14.165-12.147,24.809-23.617,31.356-13.25,7.612-28.019,13.312-42.528,18.05-5.983,1.96-13.758,3.631-20.074,1.585a14.925,14.925,0,0,1-1.986-.793c-6.3-3.086-10.512-9.554-13.8-15.466C9.986,93.962,3.446,61.481,0,29.314c6.891-.95,13.758-2.009,20.54-3.467a.076.076,0,0,0,.042.067L28.4,38.869l.642,1.077c1.7,2.42,4.632,3.068,7.436,2.826a8.706,8.706,0,0,0,4.9-1.815c4.348-3.631.266-8.556-1.986-12.023" transform="translate(0 0)" fill="#332d2d"/>
          <path id="Path-13" data-name="Path" d="M40.133,33.034c2.683,3.631,7.267,3.171,11.057.684,2.289-1.513,4.166-1.071,2.235-5.736.357.508.406-1.21.721-.829,3.906,5.3.048-2.19.048-2.19,5.45,6.88,17.313.4,15.139-4.919-2.3-5.73-4.723-14.2-7.794-18.437C63.962-.682,63.5-.343,66.578,1.478a6.347,6.347,0,0,1,2.9,4.871c.248,2.305.5,4.514.745,6.765l2.362,21.178a160.631,160.631,0,0,0,3.294,21,61.462,61.462,0,0,0,3.67,10.795c2.168,4.786,9.132,12.755,12.935,16.4,4.729-4.689,10.4-13.312,13.867-19.042,6.661,2.045,6.37,8.411,6.843,15.363v.182c1.344,12.64-10.839,22.134-21.049,27.985-11.833,6.8-25.016,11.878-37.968,16.113-5.341,1.755-12.281,3.267-17.918,1.416a12.9,12.9,0,0,1-1.774-.708c-5.62-2.759-9.386-8.526-12.323-13.808C9.3,86.917,3.339,60.722.057,34.462A7.637,7.637,0,0,1,6.452,25.99c3.688-.605,7.364-1.21,11.015-2.021l.1.048,6.976,11.563c1.52,2.148,1.768.466,4.269.248,1.581-.139,4.645-.448,5.868-1.47,3.882-3.231,1.689-4.568-.321-7.66" transform="translate(7.694 6.973)" fill="#999"/>
        </g>
      </g>
      <path id="Path-14" data-name="Path" d="M20.413,1.95S.3-4.657,0,6.452" transform="translate(258.076 312.399)" fill="none" stroke="#000" stroke-miterlimit="10" stroke-width="3"/>
      <path id="Path-15" data-name="Path" d="M39.836,117.429.4,16.464A13.254,13.254,0,0,1,13.264,0H169.921a15.657,15.657,0,0,1,15.23,11.993l43.176,100.941a13.254,13.254,0,0,1-12.892,16.337H55.029a15.651,15.651,0,0,1-15.193-11.842Z" transform="translate(58.64 310.089)" fill="#fff" opacity="0.54"/>
      <path id="Path-16" data-name="Path" d="M27.2,46.8a7.515,7.515,0,0,1,2.023,7.261,5.659,5.659,0,0,1-7.188,4.078C12.108,54.71,3.164,48.883.984,38.977a48.092,48.092,0,0,1-.66-15.248A62.574,62.574,0,0,1,3.085,9.443c2.422-6.886,9.84-11.684,17.04-8.368" transform="translate(257.831 284.581)" fill="none" stroke="#000" stroke-miterlimit="10" stroke-width="3"/>
      <path id="Path-17" data-name="Path" d="M39.836,117.429.4,16.464A13.254,13.254,0,0,1,13.264,0H169.921a15.657,15.657,0,0,1,15.23,11.993l43.176,100.941a13.254,13.254,0,0,1-12.892,16.337H55.029a15.651,15.651,0,0,1-15.193-11.842Z" transform="translate(58.64 310.089)" fill="#e2e2e2"/>
      <path id="Path-18" data-name="Path" d="M39.836,117.429.4,16.464A13.254,13.254,0,0,1,13.264,0H169.921a15.657,15.657,0,0,1,15.23,11.993l43.176,100.941a13.254,13.254,0,0,1-12.892,16.337H55.029a15.651,15.651,0,0,1-15.193-11.842Z" transform="translate(58.64 310.089)" fill="none" stroke="#000" stroke-linecap="square" stroke-linejoin="round" stroke-miterlimit="10" stroke-width="5.47"/>
      <path id="Path-19" data-name="Path" d="M36.752,108.371.364,15.188A12.231,12.231,0,0,1,12.239,0H156.761a14.44,14.44,0,0,1,14.049,11.061l39.839,93.129a12.231,12.231,0,0,1-11.9,15.073H50.764a14.44,14.44,0,0,1-14.013-10.892Z" transform="translate(67.495 315.081)" fill="#666"/>
      <g id="Group-5" data-name="Group" transform="translate(0 163.14)">
        <path id="Path-20" data-name="Path" d="M0,0,27.71,64.073" transform="translate(413.546 245.694)" fill="none" stroke="#000" stroke-miterlimit="10" stroke-width="5.47"/>
        <path id="Path-21" data-name="Path" d="M545,.49H0" transform="translate(0 309.277)" fill="none" stroke="#000" stroke-miterlimit="10" stroke-width="5.47"/>
        <path id="Path-22" data-name="Path" d="M15.024,0C10.531,4.435,3.821,4.429,0,.327" transform="translate(272.234 20.583)" fill="none" stroke="#000" stroke-miterlimit="10" stroke-width="2"/>
        <path id="Path-23" data-name="Path" d="M0,3.84C2.453,1.547,5.365-.771,8.435.246c3.312,1.1,4.239,5.252,4.614,8.713q1.593,14.268,3.179,28.506c1.344,12.1,2.761,24.494,7.793,35.615A47.269,47.269,0,0,0,34.159,87.6" transform="translate(167.509 0)" fill="none" stroke="#000" stroke-miterlimit="10" stroke-width="2"/>
        <path id="Path-24" data-name="Path" d="M86.3,17.451v-.2A19.971,19.971,0,0,0,72.606,0,92.111,92.111,0,0,1,58.739,17.548,94.771,94.771,0,0,1,7.485,43.8c.933,3.709,2.852,7.086,4.178,10.656s1.986,7.7.375,11.146C10,70,4.166,69.422.109,68.448H0" transform="translate(142.929 70.079)" fill="none" stroke="#000" stroke-miterlimit="10" stroke-width="2"/>
        <path id="Path-25" data-name="Path" d="M20.54,0C13.758,1.458,6.891,2.517,0,3.467,3.446,35.634,9.961,68.115,25.73,96.4c3.288,5.912,7.5,12.38,13.8,15.466a14.931,14.931,0,0,0,1.986.793c6.316,2.075,14.091.375,20.074-1.585,14.533-4.744,29.279-10.438,42.528-18.05,11.439-6.553,25.088-17.191,23.617-31.356a20.711,20.711,0,0,0-.951-4.587" transform="translate(101.503 25.859)" fill="none" stroke="#000" stroke-miterlimit="10" stroke-width="2"/>
      </g>
      <path id="Path-26" data-name="Path" d="M0,23.9A20.808,20.808,0,0,0,18.379,39.764a10.955,10.955,0,0,1,2.277-4.756c4.844-5.706,6.909,5,22.406-2.687,21.473-10.674,29.624-4.55,29.624-4.55.715.532.606,5.446.727,6.341.606,5.1,1.151,10.178,1.75,15.272.363,3.11.721,6.2,1.06,9.282a15.042,15.042,0,0,1,.969-1.519c1.956-6.916,5.45-15.085,12.983-11.569a10.771,10.771,0,0,1,3.876,3.189c5,6.559,1.211,12.894-4.015,17.584a27.1,27.1,0,0,1-4.366,3.9c.86,1.779,4.372,8.84,4.372,8.865.363.714,12.638-13.167,13.552-14.679a35.2,35.2,0,0,0,2.168-11.563c.2-16.235-6.413-35.131-19.572-44.444-3.264-2.305-2.222-4.526-2.422-7.66A.842.842,0,0,0,82.259.331C78.135,5.074,67.925,4.6,67.925,4.6c-35.437-8.871-47.348,6.874-54.5,9.681a13.423,13.423,0,0,1-9.083.151A5.447,5.447,0,0,1,.63,18.671l.182,1.64A5.442,5.442,0,0,1,0,23.9Z" transform="translate(235.452 100.937)" fill="#131313"/>
      <path id="Path-27" data-name="Path" d="M.47.49H.495" transform="translate(249.782 147.774)" fill="#3fbdf1"/>
      <path id="Path-28" data-name="Path" d="M19.129,47.285A20.808,20.808,0,0,1,.751,31.42,27.99,27.99,0,0,1,0,26.47l.279-.03A4.1,4.1,0,0,0,1.393,26.2,5.447,5.447,0,0,0,5.1,21.963a5.121,5.121,0,0,0,.067-1.646l-.908-8.011s6.407,4.762,13.516,1.979S36.824-4.244,72.279,4.6c0,0,8.005.472,12.111-4.272A.842.842,0,0,1,85.9.772c.212,3.14,1.375,5.361,4.645,7.66,13.159,9.318,19.771,28.209,19.565,44.444a38.006,38.006,0,0,1-5.759,19.091C103.435,73.48,91.16,87.36,90.8,86.646c0,0-3.512-7.086-4.372-8.865l-.206-.393.394-.26a40.763,40.763,0,0,0,4.178-3.249C96.011,69.19,99.8,62.854,94.806,56.3a10.771,10.771,0,0,0-3.876-3.189C83.373,49.591,79.9,57.76,77.947,64.676a18.787,18.787,0,0,0-.7,4.054c-.091-.847-.182-1.664-.272-2.511-.339-3.086-.7-6.172-1.06-9.282-.606-5.095-1.175-10.172-1.75-15.272-.091-.871,0-5.809-.727-6.341,0,0-8.157-6.123-29.624,4.55-15.5,7.685-17.561-3.025-22.406,2.687a10.955,10.955,0,0,0-2.277,4.756,12.092,12.092,0,0,0-.212,1.7.726.726,0,0,0,0,.224c-.073,1.253-.1,2.5-.127,3.721-.115,11.793,1.181,24.113,5.813,35.065,5.632,13.276,20.534,26.37,36.031,20.18A50.056,50.056,0,0,0,73.8,99.813" transform="translate(234.725 93.44)" fill="none" stroke="#000" stroke-miterlimit="10" stroke-width="3"/>
      <ellipse id="Oval" cx="2.944" cy="3.559" rx="2.944" ry="3.559" transform="translate(259.409 163.673) rotate(-18.5)"/>
      <ellipse id="Oval-2" data-name="Oval" cx="2.944" cy="3.559" rx="2.944" ry="3.559" transform="translate(282.466 162.936) rotate(-18.5)"/>
      <g id="Group-6" data-name="Group" transform="translate(252.838 151.646)">
        <path id="Path-29" data-name="Path" d="M25.863,18.688s-7.672,4.351-8.139-.163C17.579,17.133,15.7,3.5,15.7,3.5S9.5-3.065,0,1.788" transform="translate(0 2.407)" fill="none" stroke="#000" stroke-miterlimit="10" stroke-width="3"/>
        <path id="Path-30" data-name="Path" d="M0,2.089S12.39-4.1,20.589,4.818" transform="translate(24.137 0)" fill="none" stroke="#000" stroke-miterlimit="10" stroke-width="3"/>
        <path id="Path-31" data-name="Path" d="M5.472,0,6.9,7.3C2.408,11.43-.765,17.354.161,23.592c.824,5.531,5.353,10.68,10,13.578,7.763,4.841,18.088,4.459,26.445,1.38A45.047,45.047,0,0,0,56.962,22.776a27.314,27.314,0,0,0,4.7-11.382v-.073" transform="translate(30.026 51.518)" fill="none" stroke="#000" stroke-miterlimit="10" stroke-width="3"/>
        <path id="Path-32" data-name="Path" d="M0,0,2.773,13.179" transform="translate(36.921 58.816)" fill="none" stroke="#000" stroke-miterlimit="10" stroke-width="3"/>
        <path id="Path-33" data-name="Path" d="M53.695,0l4.19,27.8a11.5,11.5,0,0,0,11.39,9.772A265.471,265.471,0,0,1,107.765,46.8c49.153,15.841,79.406,60.085,87.951,109.521,3.555,20.7,3.821,42.411-.642,63-2.537,11.587-6.207,24.6-14.727,33.28-11.063,11.315-28.043,6.656-41.117,1.543-40.59-15.775-74.35-43.839-103.5-75.969C20.141,160.984,0,147.212,0,147.212" transform="translate(22.448 25.264)" fill="none" stroke="#000" stroke-miterlimit="10" stroke-width="3"/>
      </g>
      <path id="Path-34" data-name="Path" d="M10.591,38.407c-4.554-.042-8.52-3.715-9.544-8.828-2.023-10.057-2.555-25.607,12.2-29C31.688-3.659,45.87,16.406,52.822,29.088c2.337,4.236-.309,9.681-4.663,9.681Z" transform="translate(107.069 364.188)" fill="#bfbfbf"/>
      <ellipse id="Oval-3" data-name="Oval" cx="8.517" cy="12.549" rx="8.517" ry="12.549" transform="translate(102.75 340.054) rotate(-33.64)" fill="#bfbfbf"/>
      <path id="Path-35" data-name="Path" d="M110.865,37.691c-.285.042-.606.085-.884.151h-.109L66.8,37.618,2.168,37.286H1.435A13.939,13.939,0,0,1,0,37.177,18.722,18.722,0,0,0,16.538,19.659a6.391,6.391,0,0,0,0-.684v-.351A18.725,18.725,0,0,0,1.544.357C1.1.248.618.182.151.115.884.048,1.611,0,2.319,0l54.6.29L66.974.333,80.533.4A18.715,18.715,0,0,1,97.555,18.976a17.2,17.2,0,0,1-.2,2.626A18.719,18.719,0,0,1,78.91,37.618h32.809c-1.889,0-1.362,0-.854.073Z" transform="translate(315.912 408.828)" fill="#fff"/>
      <path id="Path-36" data-name="Path" d="M37.98,22.57a13.188,13.188,0,0,0,9.392,3.885H15.654c-6.056,0-9.362-1.476-11.772-3.885A13.307,13.307,0,0,1,0,13.215C0,5.954,5.959,0,15.654,0H47.373a13.214,13.214,0,0,0-9.362,22.57Z" transform="translate(301.427 446.452)" fill="#999"/>
      <path id="Path-37" data-name="Path" d="M49.728,18.909a18.232,18.232,0,0,1-1.9,8.054,17.584,17.584,0,0,1-3.6,5.077,18.661,18.661,0,0,1-8.92,4.919,18.914,18.914,0,0,1-4.239.484c.291-.067.606-.109.884-.151-.509-.048-1.035-.067.86-.067H0A18.719,18.719,0,0,0,18.457,21.2a17.2,17.2,0,0,0,.2-2.626A18.715,18.715,0,0,0,1.629,0L19.341.091,31.174.157A18.7,18.7,0,0,1,49.728,18.909Z" transform="translate(394.435 409.227)" fill="#2e2e2e"/>
      <g id="Group-7" data-name="Group" transform="translate(301.427 408.833)">
        <path id="Path-38" data-name="Path" d="M128.681,19.3a18.693,18.693,0,0,1-18.772,18.546L2.168,37.286c-.721,0-1.441-.054-2.168-.127A18.66,18.66,0,0,0,16.567,18.72,18.66,18.66,0,0,0,.194.109,20,20,0,0,1,2.362,0L110.1.557A18.7,18.7,0,0,1,128.681,19.3Z" transform="translate(14.055 0)" fill="none" stroke="#000" stroke-linecap="square" stroke-linejoin="round" stroke-miterlimit="10" stroke-width="5.47"/>
        <path id="Path-39" data-name="Path" d="M97.488,18.637A18.692,18.692,0,0,1,78.825,37.286H2.168A21.69,21.69,0,0,1,0,37.165,18.66,18.66,0,0,0,16.468,18.64,18.66,18.66,0,0,0,0,.115C.721.048,1.447,0,2.168,0H78.825A18.7,18.7,0,0,1,97.488,18.637Z" transform="translate(14.164 0.327)" fill="none" stroke="#000" stroke-linecap="square" stroke-linejoin="round" stroke-miterlimit="10" stroke-width="5.47"/>
        <path id="Path-40" data-name="Path" d="M0,13.233a13.192,13.192,0,0,0,3.876,9.343C6.3,25,9.586,26.467,15.648,26.467H125.816c-1.9,0-1.381-.036-.866-.085a13.238,13.238,0,0,1,0-26.3c-.515-.048-1.029-.085.866-.085H15.648C5.947.006,0,5.96,0,13.233Z" transform="translate(0 37.606)" fill="none" stroke="#000" stroke-linecap="square" stroke-linejoin="round" stroke-miterlimit="10" stroke-width="5.47"/>
        <path id="Path-41" data-name="Path" d="M0,13.233A13.269,13.269,0,0,0,13.243,26.467H89.319c.509,0,1.023-.036,1.538-.085a13.238,13.238,0,0,1,0-26.3C90.343.036,89.828,0,89.319,0H13.243A13.275,13.275,0,0,0,0,13.233Z" transform="translate(34.093 37.606)" fill="none" stroke="#000" stroke-linecap="square" stroke-linejoin="round" stroke-miterlimit="10" stroke-width="5.47"/>
      </g>
      <path id="Path-42" data-name="Path" d="M41.621,9.67H7.637A8.018,8.018,0,0,1,.31,4.877,3.449,3.449,0,0,1,3.507,0H39.635c-1.7,2.862-.836,6.837,1.986,9.669Z" transform="translate(170.578 349.038)" fill="#bfbfbf"/>
      <path id="Path-43" data-name="Path" d="M24.831,6.19a3.5,3.5,0,0,1-3.494,3.491H2.856C.034,6.856-.832,2.88.869,0h16.32a8.024,8.024,0,0,1,7.333,4.768,3.725,3.725,0,0,1,.309,1.422Z" transform="translate(209.343 349.021)" fill="#313131"/>
      <path id="Path-44" data-name="Path" d="M16.329,12.917a3.63,3.63,0,0,1-.333.526c-2.422,3.31-7.685,3.631-11.772.641a12.66,12.66,0,0,1-1.369-1.168C.034,10.091-.832,6.115.869,3.235A3.63,3.63,0,0,1,1.2,2.709C3.625-.625,8.863-.922,12.95,2.043a12.217,12.217,0,0,1,1.387,1.21c2.8,2.814,3.67,6.765,1.992,9.663Z" transform="translate(209.343 345.792)" fill="#bfbfbf"/>
      <path id="Path-45" data-name="Path" d="M41.141,6.2a3.511,3.511,0,0,1-3.512,3.485H1.968C3.688,6.789,2.828,2.844,0,0H33.5a8.012,8.012,0,0,1,7.333,4.786,3.507,3.507,0,0,1,.309,1.41Z" transform="translate(201.577 370.332)" fill="#031313"/>
      <path id="Path-46" data-name="Path" d="M24.422,9.663H7.642A8.012,8.012,0,0,1,.309,4.9,3.568,3.568,0,0,1,0,3.485,3.481,3.481,0,0,1,3.488,0H22.454c2.828,2.826,3.706,6.771,1.968,9.663Z" transform="translate(179.123 370.35)" fill="#bfbfbf"/>
      <path id="Path-47" data-name="Path" d="M16.29,12.928a2.317,2.317,0,0,1-.309.532c-2.422,3.328-7.666,3.631-11.748.66a12.29,12.29,0,0,1-1.393-1.21C.037,10.084-.823,6.139.854,3.228A4.017,4.017,0,0,1,1.188,2.7C3.61-.614,8.872-.935,12.953,2.06a11.5,11.5,0,0,1,1.369,1.168c2.828,2.862,3.706,6.807,1.968,9.7Z" transform="translate(187.255 367.086)" fill="#bfbfbf"/>
      <path id="Path-48" data-name="Path" d="M28.993,9.664H7.641A8.036,8.036,0,0,1,.308,4.9,3.467,3.467,0,0,1,3.511,0h23.5c-1.683,2.9-.817,6.837,1.986,9.663Z" transform="translate(186.433 391.51)" fill="#031313"/>
      <path id="Path-49" data-name="Path" d="M37.445,6.22a3.481,3.481,0,0,1-3.488,3.461H2.843C.04,6.856-.826,2.91.857,0H29.8a8.012,8.012,0,0,1,7.333,4.786,3.628,3.628,0,0,1,.309,1.434Z" transform="translate(212.583 391.492)" fill="#bfbfbf"/>
      <path id="Path-50" data-name="Path" d="M16.311,12.913a4.017,4.017,0,0,1-.333.532c-2.422,3.328-7.66,3.631-11.748.66a12.768,12.768,0,0,1-1.387-1.21C.04,10.069-.826,6.124.857,3.214a3.418,3.418,0,0,1,.327-.532C3.606-.629,8.869-.913,12.956,2.046a11.5,11.5,0,0,1,1.369,1.168c2.822,2.862,3.682,6.831,1.986,9.7Z" transform="translate(212.589 388.26)" fill="#bfbfbf"/>
      <path id="Path-51" data-name="Path" d="M.059,0,.592.151l-.2.775A9.737,9.737,0,0,1,.059,0Z" transform="translate(67.527 208.265)" fill="#353642"/>
      <ellipse id="Oval-4" data-name="Oval" cx="15.045" cy="18.018" rx="15.045" ry="18.018" transform="translate(137.765 226.339) rotate(-16.36)" fill="#d8d8d8"/>
    </g>
  </g>
</svg>
