<svg xmlns="http://www.w3.org/2000/svg" width="445.089" height="606.102" viewBox="0 0 445.089 606.102">
  <g id="worklog" transform="translate(1.004 2.363)">
    <g id="Group" transform="translate(0 0)">
      <g id="Group-2" data-name="Group" transform="translate(0 20.944)">
        <g id="Group-3" data-name="Group" transform="translate(0 90.637)">
          <path id="Path" d="M0,1.894C12.714-5.179,32.528,9.254,41.287,17.358c10.238,9.422,18.5,21.413,24.846,33.759,28.834,56.048,43.99,122.73,20.3,183.462a148.821,148.821,0,0,1-36.449,54.248c-9.007,8.478-27.542,16.475-30.246,29.443a19.733,19.733,0,0,0,.669,9.643c3.58,11.884,14.387,20.122,22.644,28.774,39.647,41.628,10.981,106.161-31.41,133.972" transform="translate(344.953 0)" fill="none" stroke="#666" stroke-miterlimit="10" stroke-width="2"/>
          <path id="Path-2" data-name="Path" d="M0,82.393C12.379,69.244,28.2,60.358,44.1,52.181c17.224-8.853,34.174-17.766,49.832-29.262A246.869,246.869,0,0,0,120.923,0" transform="translate(34.036 138.047)" fill="none" stroke="#666" stroke-miterlimit="10" stroke-width="2"/>
          <path id="Path-3" data-name="Path" d="M13.941,128.525C-1.878,87.659-5.892,40.818,10.609,0" transform="translate(0 258.461)" fill="none" stroke="#666" stroke-miterlimit="10" stroke-width="2"/>
        </g>
        <path id="Path-4" data-name="Path" d="M167.8,55.179v-43.8A11.376,11.376,0,0,0,156.428,0H11.376A11.376,11.376,0,0,0,0,11.376V217.355a11.376,11.376,0,0,0,11.376,11.329H156.449a10.646,10.646,0,0,0,4.109-.79" transform="translate(53.421 0)" fill="none" stroke="#000" stroke-linecap="round" stroke-linejoin="round" stroke-miterlimit="10" stroke-width="4"/>
      </g>
      <rect id="Rectangle" width="157.593" height="214.806" rx="16.27" transform="translate(58.541 27.903)" fill="#d8d8d8"/>
      <rect id="Rectangle-2" data-name="Rectangle" width="140.764" height="40.216" rx="8.14" transform="translate(67.815 44.525)" fill="#d8d8d8"/>
      <g id="Group-4" data-name="Group" transform="translate(115.753 53.144)">
        <circle id="Oval" cx="4.162" cy="4.162" r="4.162" transform="translate(17.419)" fill="#999"/>
        <path id="Path-5" data-name="Path" d="M0,11.623a11.623,11.623,0,0,1,23.246,0Z" transform="translate(9.958 11.356)" fill="#999"/>
        <path id="Shape" d="M6.566,38.267a22.413,22.413,0,1,1,15.856,6.567A22.416,22.416,0,0,1,6.566,38.267Z" transform="translate(0 74.698)" fill="#999"/>
      </g>
      <circle id="Oval-2" data-name="Oval" cx="3.272" cy="3.272" r="3.272" transform="translate(134.911 160.697)" fill="#fff"/>
      <path id="Path-6" data-name="Path" d="M9.05,7.744c-.7,4.858-1.3,9.977-2.723,14.721a1.609,1.609,0,0,1-2.831,0A83.491,83.491,0,0,1,1.14,11.639C.705,8.962-.867,4.68.638,2.083,1.937-.219,5.624-.506,7.752.7,10.388,2.2,9.378,5.329,9.05,7.744Z" transform="translate(133.283 134.304)" fill="#fff"/>
      <g id="Group-5" data-name="Group" transform="translate(81.894 102.702)">
        <path id="Path-7" data-name="Path" d="M0,.49H109.447" transform="translate(0 -0.49)" fill="none" stroke="#fff" stroke-miterlimit="10" stroke-width="4.72"/>
        <path id="Path-8" data-name="Path" d="M0,.49H109.447" transform="translate(0 10.277)" fill="none" stroke="#fff" stroke-miterlimit="10" stroke-width="4.72"/>
        <path id="Path-9" data-name="Path" d="M0,.49H109.447" transform="translate(0 79.655)" fill="none" stroke="#fff" stroke-miterlimit="10" stroke-width="4.72"/>
      </g>
      <path id="Path-10" data-name="Path" d="M68.87,150.881c.415.321,1.138-134.969,1.138-134.969L28.835,0S-1.773,75.019.081,75.775l8.264,3.346s2.041-1.613,6.772,10.037S53.948,139.405,68.87,150.881Z" transform="translate(149.117 59.728)" fill="#fff"/>
      <path id="Path-11" data-name="Path" d="M0,.49H58.6" transform="translate(107.315 192.548)" fill="none" stroke="#fff" stroke-miterlimit="10" stroke-width="4.72"/>
      <path id="Path-12" data-name="Path" d="M157.482,173.609c-.535,5.835-7.735,72.764-.756,85.833,2.529,4.731-22.577.2-24.09-.147-22.751-5.353-44.057-15.223-64-27.228s-37.56-27.8-58.35-38.45C6.446,191.649-2.058,187.34.458,181.7,4.74,172.09,10,158.827,10.415,147.1l-.127-15.391s-3.038-9.663,6.872-1.2,55.259,30.781,84.615,4.925,31.1-46.306,31.1-46.306-18.8-46-72.309-17.86l18.9-48.848s-2.59-3.286,5.6-2.677,23.38-3.439,25.261-18.449c0,0,.147-4.9,8.813,4.363S168.757,51.086,157.482,173.609Z" transform="translate(225.258 97.874)" fill="#2e2e2e"/>
      <g id="Group-6" data-name="Group" transform="translate(147.746 90.697)">
        <path id="Path-13" data-name="Path" d="M0,7.515A49.089,49.089,0,0,1,15.2,0" transform="translate(129.789 0)" fill="none" stroke="#000" stroke-miterlimit="10" stroke-width="3"/>
        <path id="Path-14" data-name="Path" d="M109.447,0l-36.8,133.055-33.458,121L17.88,256.059A19.687,19.687,0,0,0,0,275.645H65.892l47.724-82.253,35.5-61.194,55.5-95.689c1.606-2.79,3.165-5.581,4.684-8.431a.194.194,0,0,0,.04-.114" transform="translate(0 235.897)" fill="none" stroke="#000" stroke-miterlimit="10" stroke-width="3"/>
        <path id="Path-15" data-name="Path" d="M45.924,184.848c.5-3.252.944-6.5,1.338-9.776a1.647,1.647,0,0,1,.04-.442,335.167,335.167,0,0,0,1.432-59.7.575.575,0,0,0,0-.174C47.262,93.1,43.288,70.348,35.351,48.166a118.662,118.662,0,0,0-8.518-18.5c-.248-.488-.529-.97-.836-1.452-1.057-1.847-2.195-3.647-3.346-5.427-1.559-2.349-3.212-4.631-4.945-6.805A72.5,72.5,0,0,0,9.141,6.805a.141.141,0,0,1-.087-.087A63.864,63.864,0,0,0,1.693,1.1h0C1.211.77.729.462.241.154A1.66,1.66,0,0,0,0,0" transform="translate(187.705 6.17)" fill="none" stroke="#000" stroke-miterlimit="10" stroke-width="4.72"/>
        <path id="Path-16" data-name="Path" d="M35.485,0,87.238,143.447H12.56a19.232,19.232,0,0,1,16.689-19.064L45.5,122.208S23.648,93.434,0,61.188" transform="translate(113.629 368.096)" fill="none" stroke="#000" stroke-miterlimit="10" stroke-width="3"/>
      </g>
      <path id="Path-17" data-name="Path" d="M151.811,48.514l-22.43,57.922a14.139,14.139,0,0,1-18.5,8L57.755,92.926a2.094,2.094,0,0,1-.067-.221c-.669-2.677-7.535-28.332-15.859-28.332-6.39,0-3.346,12.654-.669,19.814.308.77.6,1.492.857,2.108L41.6,86.12,0,69.164,26.238,0,77.461,19.787Z" transform="translate(154.23 68.387)" fill="#999"/>
      <g id="Group-7" data-name="Group" transform="translate(149.178 59.728)">
        <path id="Path-18" data-name="Path" d="M47.055,94.953c-2.79-6.39-7.234-21.922-.167-21.922,8.324,0,15.183,25.675,15.859,28.332l.067.221L115.938,123.1a14.146,14.146,0,0,0,18.5-8.03l24.993-64.574L79.991,19.787,28.774,0,0,75.775Z" transform="translate(0 0)" fill="none" stroke="#000" stroke-miterlimit="10" stroke-width="3"/>
        <path id="Path-19" data-name="Path" d="M200.211,12.868c1.593,27.77-4.61,63.3-40.016,84.207C107.821,128.043,38.5,57.882,12.841,23.835A91.219,91.219,0,0,1,2.168,5.768,41.488,41.488,0,0,1,0,0" transform="translate(11.516 80.459)" fill="none" stroke="#000" stroke-miterlimit="10" stroke-width="3"/>
        <path id="Path-20" data-name="Path" d="M43.812,0s4.015,29.249-8.364,54.115l.054-.067a.079.079,0,0,1-.04.067c-19,35.646-46.212,92.511-31.035,133.831C9.585,202,18.478,218.727,29.111,236.071" transform="translate(42.094 163.856)" fill="none" stroke="#000" stroke-miterlimit="10" stroke-width="3"/>
      </g>
      <path id="Path-21" data-name="Path" d="M62.476,50.037l.04.187A14.822,14.822,0,0,1,48.959,66.211a14.467,14.467,0,0,1-7.314-1.278,12.32,12.32,0,0,1-1.88-1,1.847,1.847,0,0,1,0-3.031c2.877-2.074,5.507-4.965,6.257-8.351a8.123,8.123,0,0,0,.054-3.165,7.735,7.735,0,0,0-4.8-6.022,4.744,4.744,0,0,0-1.211-.194c-1.158-.094-2.677.054-2.978.91a19.954,19.954,0,0,0,.174-12.868A17.887,17.887,0,0,0,33.074,24.3a5.186,5.186,0,0,1-5.527,5.761,7.413,7.413,0,0,1-7.006-5.822v.107c-2.57,6.4-10.037,6.578-15.391,3.734A14.956,14.956,0,0,1,.258,24.067C-1.261,17.5,4.153,11.159,10.4,10.249c.134-4.176,3.178-8.645,7.287-8.987A8.03,8.03,0,0,1,25.044,4.8c.114.181.241.375.341.575,1.68-2.436,4.43-5.106,7.361-5.353a9.937,9.937,0,0,1,9.77,5.862c0-.288,2.576-1.465,2.837-1.573a11.6,11.6,0,0,1,13.6,4.155,10.432,10.432,0,0,1,.294,1.773,11.469,11.469,0,0,1-.8,5.253,7.582,7.582,0,0,1,2.616,1.338A7.909,7.909,0,0,1,64.2,21.966c.033.207.054.415.067.622a7.93,7.93,0,0,1-.964,4.517,11.824,11.824,0,0,1,8.2,8.4,12.613,12.613,0,0,1,.328,2.007,11.844,11.844,0,0,1-9.348,12.527Z" transform="translate(264.757 4.05)" fill="#013131"/>
      <path id="Path-22" data-name="Path" d="M62.5,50.039l.04.187A14.822,14.822,0,0,1,48.98,66.212a14.467,14.467,0,0,1-7.314-1.278c2.877-2.074,5.507-4.972,6.25-8.358a8.4,8.4,0,0,0-1.84-7.187,7.735,7.735,0,0,0-4.8-6.022,4.744,4.744,0,0,0-1.211-.194,19.238,19.238,0,0,0-2.8-11.958A17.887,17.887,0,0,0,33.074,24.3a5.186,5.186,0,0,1-5.527,5.761,7.413,7.413,0,0,1-7.006-5.822v.107c-2.57,6.4-10.037,6.578-15.391,3.734A14.956,14.956,0,0,1,.258,24.069C-1.261,17.5,4.153,11.161,10.4,10.251c.134-4.176,3.178-8.645,7.287-8.987A8.03,8.03,0,0,1,25.044,4.8c.114.181.241.375.341.575,1.68-2.436,4.43-5.106,7.361-5.353a9.937,9.937,0,0,1,9.79,5.862c0-.288,2.576-1.465,2.837-1.573a11.6,11.6,0,0,1,13.6,4.155,10.431,10.431,0,0,1,.294,1.773,11.469,11.469,0,0,1-.8,5.253,7.581,7.581,0,0,1,2.616,1.338,10.8,10.8,0,0,1-.716,2.677,8.344,8.344,0,0,1,3.854,2.422c.033.207.054.415.067.622a7.929,7.929,0,0,1-.964,4.517A11.791,11.791,0,0,1,66.157,28.3a8.338,8.338,0,0,1-.937,2.79,11.724,11.724,0,0,1,6.3,4.376,12.614,12.614,0,0,1,.328,2.007A11.844,11.844,0,0,1,62.5,50.039Z" transform="translate(264.737 4.049)" fill="#131313"/>
      <path id="Path-23" data-name="Path" d="M0,0S8.485.12,10.432,7.28" transform="translate(275.233 40.678)" fill="none" stroke="#000" stroke-miterlimit="10" stroke-width="3"/>
      <path id="Path-24" data-name="Path" d="M7.831,28.894a15.391,15.391,0,0,1-5.9.288,2.322,2.322,0,0,1-1.613-3.46C2.083,22.731,3.9,19.774,5.884,16.93a2.322,2.322,0,0,0,.549-1.285S5.617,6.792,7.4,0" transform="translate(265.214 33.237)" fill="none" stroke="#000" stroke-miterlimit="10" stroke-width="3"/>
      <ellipse id="Oval-3" data-name="Oval" cx="2.603" cy="2.215" rx="2.603" ry="2.215" transform="matrix(0.125, -0.992, 0.992, 0.125, 275.002, 50.24)"/>
      <g id="Group-8" data-name="Group" transform="translate(46.783 0)">
        <path id="Path-25" data-name="Path" d="M0,0C.181,1.773,8.137,14.052,15.33,27.609a.2.2,0,0,0,0,.067c.134.288.268.6.422.9" transform="translate(273.029 68.381)" fill="none" stroke="#000" stroke-linecap="round" stroke-linejoin="round" stroke-miterlimit="10" stroke-width="4.72"/>
        <path id="Path-26" data-name="Path" d="M0,0,2.5,17.813" transform="translate(244.329 81.362)" fill="none" stroke="#000" stroke-miterlimit="10" stroke-width="3"/>
        <g id="Group-9" data-name="Group" transform="translate(216.023 1.157)">
          <path id="Path-27" data-name="Path" d="M0,0S3.627,17.639,12.547,20.309s16.662-8.458,16.662-8.458" transform="translate(7.174 61.422)" fill="none" stroke="#000" stroke-linecap="round" stroke-linejoin="round" stroke-miterlimit="10" stroke-width="3"/>
          <path id="Path-28" data-name="Path" d="M0,0A8.251,8.251,0,0,0,7.856.254" transform="translate(9.609 69.378)" fill="none" stroke="#000" stroke-linecap="round" stroke-linejoin="round" stroke-miterlimit="10" stroke-width="3"/>
          <path id="Path-29" data-name="Path" d="M16.1,7.468a7.9,7.9,0,0,0-1.338-3.821A8.03,8.03,0,0,0,.037,8.793" transform="translate(10.262 0)" fill="none" stroke="#000" stroke-linecap="round" stroke-miterlimit="10" stroke-width="3"/>
          <path id="Path-30" data-name="Path" d="M22.905,10.661a11.958,11.958,0,0,0-6.022-9.368C8.378-3.465-2.522,5.776.522,14.93a12.926,12.926,0,0,0,6.524,7.04c5.353,2.844,12.848,2.677,15.391-3.734l.04-.1a7.42,7.42,0,0,0,7.006,5.822,5.206,5.206,0,0,0,5.541-5.768,19.276,19.276,0,0,1,4.015,19.787c.435-1.218,3.346-1,4.189-.716,3.627,1.265,5.561,5.554,4.758,9.194-.756,3.406-3.386,6.283-6.25,8.371a1.84,1.84,0,0,0,0,3.025,14.668,14.668,0,0,0,9.188,2.275A14.822,14.822,0,0,0,64.48,44.145l-.04-.187a11.824,11.824,0,0,0,.836-22.939A7.929,7.929,0,0,0,66.24,16.5a8.083,8.083,0,0,0-8.7-7.361" transform="translate(0 8.986)" fill="none" stroke="#000" stroke-linecap="round" stroke-linejoin="round" stroke-miterlimit="10" stroke-width="3"/>
        </g>
        <path id="Path-31" data-name="Path" d="M0,4.483C1.606,1.806,3.379.307,6.692.033a9.89,9.89,0,0,1,9.87,5.9c-.114-.261,2.576-1.486,2.851-1.593a11.57,11.57,0,0,1,3.346-.736A11.871,11.871,0,0,1,35.211,14.313a11.469,11.469,0,0,1-.8,5.253" transform="translate(242.04 0)" fill="none" stroke="#000" stroke-linecap="square" stroke-linejoin="round" stroke-miterlimit="10" stroke-width="4.72"/>
        <path id="Path-32" data-name="Path" d="M29.483,0S35.733,20.784,0,21.908" transform="translate(258.876 95.997)" fill="none" stroke="#000" stroke-miterlimit="10" stroke-width="3"/>
        <path id="Path-33" data-name="Path" d="M0,90C-.06,74.8,14.876,70.716,22.029,70.85,66.36,71.693,73.045,0,73.045,0" transform="translate(102.568 214.23)" fill="none" stroke="#000" stroke-linecap="round" stroke-linejoin="round" stroke-miterlimit="10" stroke-width="3"/>
        <path id="Path-34" data-name="Path" d="M24.859,0s-5.233,51.619,0,68.99S0,72.731,0,72.731" transform="translate(309.732 281.714)" fill="none" stroke="#000" stroke-miterlimit="10" stroke-width="4.72"/>
        <g id="Group-10" data-name="Group" transform="translate(0 296.877)">
          <path id="Path-35" data-name="Path" d="M34.789.49H0" transform="translate(0 23.252)" fill="none" stroke="#000" stroke-linecap="round" stroke-linejoin="round" stroke-miterlimit="10" stroke-width="2"/>
          <path id="Path-36" data-name="Path" d="M66.568.49H0" transform="translate(92.872 23.252)" fill="none" stroke="#000" stroke-linecap="round" stroke-linejoin="round" stroke-miterlimit="10" stroke-width="2"/>
          <path id="Path-37" data-name="Path" d="M39.3.49H0" transform="translate(44.024 23.252)" fill="none" stroke="#000" stroke-linecap="round" stroke-linejoin="round" stroke-miterlimit="10" stroke-width="2"/>
          <path id="Path-38" data-name="Path" d="M38.858.49H0" transform="translate(43.455 6.864)" fill="none" stroke="#000" stroke-linecap="round" stroke-linejoin="round" stroke-miterlimit="10" stroke-width="2"/>
          <path id="Path-39" data-name="Path" d="M20.978.49H0" transform="translate(92.297 6.864)" fill="none" stroke="#000" stroke-linecap="round" stroke-linejoin="round" stroke-miterlimit="10" stroke-width="2"/>
          <path id="Path-40" data-name="Path" d="M40.517.49H0" transform="translate(126.082 6.864)" fill="none" stroke="#000" stroke-linecap="round" stroke-linejoin="round" stroke-miterlimit="10" stroke-width="2"/>
          <path id="Path-41" data-name="Path" d="M6.872.49H0" transform="translate(26.873 6.864)" fill="none" stroke="#000" stroke-linecap="round" stroke-linejoin="round" stroke-miterlimit="10" stroke-width="2"/>
          <path id="Path-42" data-name="Path" d="M0,0H8.987s10.3,9.723,0,20.851v7.776H0" transform="translate(81.028 5.882)" fill="none" stroke="#000" stroke-linecap="round" stroke-linejoin="round" stroke-miterlimit="10" stroke-width="2"/>
          <path id="Path-43" data-name="Path" d="M0,0S10.3,9.723,0,20.851v7.776" transform="translate(41.454 5.882)" fill="none" stroke="#000" stroke-linecap="round" stroke-linejoin="round" stroke-miterlimit="10" stroke-width="2"/>
          <path id="Path-44" data-name="Path" d="M8.987,28.626H0V20.851C10.3,9.723,0,0,0,0H8.987" transform="translate(32.467 5.882)" fill="none" stroke="#000" stroke-linecap="round" stroke-linejoin="round" stroke-miterlimit="10" stroke-width="2"/>
          <path id="Path-45" data-name="Path" d="M0,0S10.3,9.723,0,20.851v7.776" transform="translate(81.028 5.882)" fill="none" stroke="#000" stroke-linecap="round" stroke-linejoin="round" stroke-miterlimit="10" stroke-width="2"/>
          <path id="Path-46" data-name="Path" d="M0,.49H8.987" transform="translate(32.467 26.243)" fill="none" stroke="#000" stroke-linecap="round" stroke-linejoin="round" stroke-miterlimit="10" stroke-width="2"/>
          <path id="Path-47" data-name="Path" d="M0,.49H8.987" transform="translate(81.028 26.243)" fill="none" stroke="#000" stroke-linecap="round" stroke-linejoin="round" stroke-miterlimit="10" stroke-width="2"/>
          <path id="Path-48" data-name="Path" d="M3.076,0A12.888,12.888,0,0,0,.68,4.965,31.116,31.116,0,0,0,.044,13.1c.04,2.677.375,5.42,2.918,6.825,3.821,2.135,8.411-.917,8.612-5.293a38.256,38.256,0,0,1,1.914-9.663c.04-.154.087-.288.127-.415" transform="translate(112.595 2.389)" fill="none" stroke="#000" stroke-linecap="round" stroke-linejoin="round" stroke-miterlimit="10" stroke-width="2"/>
          <path id="Path-49" data-name="Path" d="M0,6.919C3.185,6.25,7.929,4.5,10.345,0" transform="translate(126.209 0)" fill="none" stroke="#000" stroke-linecap="round" stroke-linejoin="round" stroke-miterlimit="10" stroke-width="2"/>
          <path id="Path-50" data-name="Path" d="M0,0S2.5,6.6,8.8,7.4,11.115,0,11.115,0s2.61,5.782,5.768,5.976A4.59,4.59,0,0,0,21.681,0s.964,5.306,5.634,4.724S30.058,0,30.058,0" transform="translate(104.475 23.742)" fill="none" stroke="#000" stroke-linecap="round" stroke-linejoin="round" stroke-miterlimit="10" stroke-width="2"/>
        </g>
      </g>
      <g id="Group-11" data-name="Group" transform="translate(10.314 331.112)">
        <g id="Group-12" data-name="Group" transform="translate(0 0)" opacity="0.54">
          <path id="Path-51" data-name="Path" d="M69.117,83.49,64.6,148.719a49.634,49.634,0,0,1-7.662,10.773c-.328-.12-.669-.241-.984-.388-.6-.207-1.2-.448-1.767-.669-9.154-4.015-16.06-11.489-18.134-19.927-1.82-7.421-.174-15.437-3.707-22.41-4.309-8.585-16.06-13.972-17.472-23.668-1.338-9.067,6.819-17.4,5.5-26.271C18.85,56.121,6.524,50.152,4.222,40.336c-1.439-6.1-.154-13.1-.669-19.406A128.016,128.016,0,0,0,0,.12c18.194-1.338,36.717,8.7,42.612,23.066,4.818,11.757,1.914,25.495,9.455,36.208,4.1,5.8,10.921,10.138,14.447,16.214a21.166,21.166,0,0,1,2.335,6.076c.033.147.033.3.06.415.033.241.06.422.087.6.06.522.12.79.12.79Z" transform="translate(0 0)" fill="#a8a8a8"/>
          <path id="Path-52" data-name="Path" d="M.531.776H.5S.438.509.377,0A4.015,4.015,0,0,1,.5.629.27.27,0,0,1,.531.776Z" transform="translate(68.619 82.687)" fill="#a8a8a8"/>
        </g>
        <path id="Path-53" data-name="Path" d="M64.634,34.756c-2.4,8.465-15.257,13.611-16.816,22.29-1.378,7.689,7.12,14.869,5.715,22.678-1.492,8.385-13.7,13.022-18.188,20.443-3.654,6.022-1.947,12.921-3.834,19.325-2.181,7.274-9.368,13.765-18.971,17.2-.6.214-1.164.422-1.767.6-.328.087-.669.207-1.017.294-3.172-2.6-6.792-7.18-9.756-12.118L4.517,60.244H4.55c3.5-2.964,7.508-5.688,10.292-8.98A25.744,25.744,0,0,0,20.2,39.748h.013V39.3c1.338-6.437,1.439-13.169,4.463-19.272C30.8,7.608,50.039-1.037,68.983.1a96.54,96.54,0,0,0-3.654,17.98C64.781,23.474,66.133,29.516,64.634,34.756Z" transform="translate(64.627 23.272)" fill="#d8d8d8"/>
        <path id="Path-54" data-name="Path" d="M.513.162V.61H.426A1.562,1.562,0,0,0,.513.162Z" transform="translate(84.322 62.357)" fill="#3fbdf1"/>
        <path id="Path-55" data-name="Path" d="M32.815,44.1a2.784,2.784,0,0,1-.087.448,25.184,25.184,0,0,1-5.353,11.516c-2.784,3.292-6.792,6.022-10.292,8.98,0,0,0-.094-.033-.12a4.015,4.015,0,0,0-.12-.629,5.01,5.01,0,0,0-.087-.6,1.074,1.074,0,0,0-.06-.415A21.166,21.166,0,0,0,14.447,57.2C10.921,51.127,4.1,46.79,0,40.989c0,0,1.854-30.58,17.5-39.888,14.862-8.8,15.317,37.908,15.317,43Z" transform="translate(52.02 18.418)" fill="#b1b1b1"/>
        <path id="Path-56" data-name="Path" d="M.513.162V.61H.426A1.562,1.562,0,0,0,.513.162Z" transform="translate(84.322 62.357)" fill="#3fbdf1"/>
        <path id="Path-57" data-name="Path" d="M.522.629V.776S.462.509.4,0a4.015,4.015,0,0,1,.12.629Z" transform="translate(68.595 82.713)" fill="#3fbdf1"/>
      </g>
      <g id="Group-13" data-name="Group" transform="translate(8.923 304.231)">
        <g id="Group-14" data-name="Group" transform="translate(0 26.886)">
          <path id="Path-58" data-name="Path" d="M4.51,60.271C8,57.3,12.038,54.543,14.835,51.257,22.678,42,19.66,30.166,24.692,20.014,30.815,7.608,50.12-1.037,69.017.1a94.558,94.558,0,0,0-3.667,17.98c-.562,5.427.783,11.476-.669,16.729C62.272,43.268,49.417,48.4,47.851,57.086c-1.385,7.682,7.133,14.862,5.721,22.671-1.5,8.385-13.7,13.015-18.194,20.436-3.66,6.022-1.941,12.921-3.841,19.339-2.3,7.735-10.285,14.574-20.744,17.793-.335.114-.669.228-1.03.315-3.172-2.6-6.792-7.173-9.763-12.118" transform="translate(64.607 23.22)" fill="none" stroke="#000" stroke-miterlimit="10" stroke-width="2"/>
          <path id="Path-59" data-name="Path" d="M47.8,0C19.573,30.386,6.317,94.458,1.131,127.508c-.422,2.79-.8,5.353-1.131,7.642" transform="translate(74.256 33.05)" fill="none" stroke="#000" stroke-miterlimit="10" stroke-width="2"/>
          <path id="Path-60" data-name="Path" d="M110.21,0,97.2,76.645a8.967,8.967,0,0,1-8.7,7.669H20.677a8.973,8.973,0,0,1-8.7-7.789L0,0Z" transform="translate(14.454 186.809)" fill="none" stroke="#000" stroke-miterlimit="10" stroke-width="2"/>
          <path id="Path-61" data-name="Path" d="M134.7,10.057a9.02,9.02,0,0,1-8.786,8.552H8.814A9.008,9.008,0,0,1,.042,10.191C-.46,4.731,3.615,0,8.814,0h117.1A9.11,9.11,0,0,1,134.7,10.057Z" transform="translate(2.3 168.213)" fill="none" stroke="#000" stroke-miterlimit="10" stroke-width="2"/>
          <path id="Path-62" data-name="Path" d="M56.938,159.5c5.025-4.992,11.175-16.1,13.905-25.18,2.242-7.488-1.713-15.19-2.616-22.865C66.808,99.41,72.784,86.5,66.487,75.608c-3.506-6.076-10.332-10.4-14.427-16.22-7.548-10.706-4.651-24.424-9.475-36.181C36.71,8.813,18.188-1.191,0,.114A129.515,129.515,0,0,1,3.52,20.945c.542,6.283-.756,13.283.669,19.406C6.5,50.167,18.837,56.109,20.349,66.167c1.338,8.893-6.839,17.211-5.494,26.264C16.3,102.14,28,107.507,32.334,116.106c3.513,6.986,1.867,14.989,3.694,22.4,2.289,9.261,10.385,17.4,20.911,20.991Z" transform="translate(0 0)" fill="none" stroke="#000" stroke-miterlimit="10" stroke-width="2"/>
          <path id="Path-63" data-name="Path" d="M0,0C27.1,35.2,39.855,109.407,44.833,147.716c.428,3.346.81,6.364,1.111,9.087" transform="translate(11.101 11.396)" fill="none" stroke="#000" stroke-miterlimit="10" stroke-width="2"/>
          <path id="Path-64" data-name="Path" d="M0,40.993S1.86,10.413,17.5,1.111s15.33,42.839,15.33,42.839" transform="translate(52.06 18.395)" fill="none" stroke="#000" stroke-miterlimit="10" stroke-width="2"/>
          <path id="Path-65" data-name="Path" d="M.909,34.7s-3.2-17.5,2.4-34.7" transform="translate(68.208 48.795)" fill="none" stroke="#000" stroke-miterlimit="10" stroke-width="2"/>
        </g>
        <path id="Path-66" data-name="Path" d="M58.544.49H0" transform="translate(370.511 15.898)" fill="none" stroke="#000" stroke-linecap="round" stroke-linejoin="round" stroke-miterlimit="10" stroke-width="2"/>
        <path id="Path-67" data-name="Path" d="M57.621.49H0" transform="translate(372.385 -0.49)" fill="none" stroke="#000" stroke-linecap="round" stroke-linejoin="round" stroke-miterlimit="10" stroke-width="2"/>
        <path id="Path-68" data-name="Path" d="M0,.49H372.84" transform="translate(19.198 297.518)" fill="none" stroke="#000" stroke-miterlimit="10" stroke-width="2"/>
      </g>
    </g>
  </g>
</svg>
